<ttFont>
          <CharString index="0">
            rmoveto
            -102 callsubr
            -101 callgsubr
            return
          </CharString>
          <CharString index="1">
            24 -38 23 -12 -11 -4 -10 -15 -11 vhcurveto
            -30 -37 -42 -35 -7 vvcurveto
            -2 0 -6 17 29 102 42 23 vhcurveto
            return
          </CharString>
          <CharString index="2">
            -103 callgsubr
            -8 callgsubr
            vhcurveto
            endchar
          </CharString>
          <CharString index="3">
            -105 callgsubr
            endchar
          </CharString>
          <CharString index="4">
            -96 callsubr
            -81 callsubr
            return
          </CharString>
          <CharString index="5">
            -21 11 17 -20 13 hhcurveto
            9 0 10 3 hvcurveto
            2 8 11 48 7 21 rrcurveto
            2 6 1 4 callgsubr
            return
          </CharString>
          <CharString index="6">
            rmoveto
            -105 callsubr
          </CharString>
          <CharString index="7">
            465 -90 callsubr
            -75 callsubr
            33 20 5 10 15 hvcurveto
            return
          </CharString>
          <CharString index="8">
            -92 callsubr
            -85 callsubr
            return
          </CharString>
          <CharString index="9">
            rmoveto
            21 -10 -18 20 -13 hhcurveto
            -8 -1 -10 -2 hvcurveto
            -1 -8 -12 -49 -7 -20 rrcurveto
            -2 -5 -1 -4 -4 vvcurveto
            -7 4 -4 7 -1 vhcurveto
            9 22 5 11 16 hvcurveto
            2 3 87 callgsubr
            hhcurveto
            6 5 -4 0 hvcurveto
            return
          </CharString>
          <CharString index="10">
            -64 callsubr
            -18 -1 -23 -21 -48 vhcurveto
            -62 25 callgsubr
            -438 -26 -77 callgsubr
            return
          </CharString>
          <CharString index="11">
            -82 callsubr
            15 -12 22 39 31 31 25 vhcurveto
            return
          </CharString>
          <CharString index="12">
            -84 -33 1 34 12 42 112 64 59 hvcurveto
            16 18 28 5 24 hhcurveto
            36 40 -7 -48 -39 -16 -31 0 hvcurveto
            -2 -5 callsubr
            -2 vvcurveto
            return
          </CharString>
          <CharString index="13">
            -119 -144 -21 callsubr
            18 49 3 22 10 vhcurveto
            6 13 56 123 72 97 38 50 rcurveline
            1 21 21 1 20 hhcurveto
            83 53 -8 -27 hvcurveto
            -54 -98 -114 -61 vvcurveto
            -22 48 -40 35 vhcurveto
            return
          </CharString>
          <CharString index="14">
            18 78 104 245 66 145 rrcurveto
            74 160 46 79 13 vvcurveto
            28 -42 5 -27 -13 -10 -1 0 vhcurveto
            -95 -173 -22 callsubr
            -45 -1 -37 -1 -8 -4 rlinecurve
            -24 -9 -45 -35 -25 vvcurveto
            return
          </CharString>
          <CharString index="15">
            -81 callgsubr
            7 hlineto
            10 0 3 3 hvcurveto
            return
          </CharString>
          <CharString index="16">
            163 50 rmoveto
            44 112 203 0 vhcurveto
            68 124 112 190 42 54 -76 callgsubr
            -16 vlineto
            -17 -1 -24 -21 -42 vhcurveto
            -143 -284 -156 -249 -44 -26 rrcurveto
            0 -6 -6 -6 vvcurveto
            -10 16 -13 82 47 50 3 20 vhcurveto
            15 -5 -5 35 vvcurveto
            return
          </CharString>
          <CharString index="17">
            11 rmoveto
            31 -46 callsubr
            -6 -13 -4 -4 -5 -4 -46 callgsubr
            -33 -40 4 33 return
          </CharString>
          <CharString index="18">
            401 -7 -44 callgsubr
            -86 callsubr
            -449 -225 rmoveto
            -87 callsubr
            131 371 -44 callgsubr
            return
          </CharString>
          <CharString index="19">
            -31 -95 callgsubr
            -2 callgsubr
            66 callsubr
            return
          </CharString>
          <CharString index="20">
            95 102 515 526 0 vvcurveto
            0 24 22 7 7 vhcurveto
            14 callgsubr
            7 -11 4 -16 -5 -34 -1 -23 -21 vhcurveto
            -79 -84 -531 -543 0 vvcurveto
            0 -24 -22 -7 -7 vhcurveto
            -4 -5 -2 -4 -3 vvcurveto
            -11 18 0 9 8 31 1 22 20 vhcurveto
            return
          </CharString>
          <CharString index="21">
            -65 callsubr
            -69 callgsubr
            return
          </CharString>
          <CharString index="22">
            1 6 -36 41 -23 42 rrcurveto
            16 -9 -2 12 -12 hhcurveto
            return
          </CharString>
          <CharString index="23">
            67 callsubr
            -92 -75 44 86 91 158 221 87 171 hvcurveto
            29 57 1 23 16 vvcurveto
            18 10 12 92 44 10 -11 -10 -9 -7 -8 0 vhcurveto
            -38 -53 -245 -388 -84 vvcurveto
            -22 2 -57 70 91 35 58 32 20 vhcurveto
            96 148 149 357 42 34 rrcurveto
            19 23 32 0 26 hhcurveto
            30 15 -2 -10 -6 -5 -8 -10 -11 hvcurveto
            -70 -87 -203 -348 -67 -112 rrcurveto
            -29 -17 -76 -132 -157 hhcurveto
            return
          </CharString>
          <CharString index="24">
            1 2 1 1 2 vvcurveto
            13 -37 3 0 -58 -9 -25 0 vhcurveto
            -112 -65 -69 -49 -35 -49 callgsubr
            return
          </CharString>
          <CharString index="25">
            -94 callgsubr
            -17 return
          </CharString>
          <CharString index="26">
            185 hmoveto
            -94 callgsubr
            return
          </CharString>
          <CharString index="27">
            rmoveto
            -56 callsubr
            2 callsubr
            -10 callgsubr
            vhcurveto
            return
          </CharString>
          <CharString index="28">
            426 331 rmoveto
            -147 -110 -75 -86 -61 hhcurveto
            -14 -9 10 18 hvcurveto
            87 143 176 14 vvcurveto
            9 -12 3 -11 return
          </CharString>
          <CharString index="29">
            -2 hlineto
            -4 -25 -21 -2 -19 hhcurveto
            -58 -30 16 0 hvcurveto
            -17 -41 -44 -17 -11 12 -10 59 hvcurveto
            return
          </CharString>
          <CharString index="30">
            -88 callsubr
            -55 callsubr
            vhcurveto
            return
          </CharString>
          <CharString index="31">
            65 callsubr
            27 19 39 0 29 34 vhcurveto
            0 6 9 15 vhcurveto
            hintmask 11001000
            8 1 -3 118 hhcurveto
            hintmask 10101000
            58 65 0 2 37 hvcurveto
            17 21 2 16 12 hvcurveto
            32 -46 callsubr
            -7 -8 -8 0 -9 -4 vhcurveto
            hintmask 11001000
            -138 -87 -127 -9 -32 hhcurveto
            -7 hlineto
            -54 -12 20 17 60 64 105 24 43 hvcurveto
            return
          </CharString>
          <CharString index="32">
            63 91 128 12 15 hvcurveto
            -54 callgsubr
            return
          </CharString>
          <CharString index="33">
            -75 callgsubr
            -20 7 -37 42 4 5 4 8 1 vhcurveto
            endchar
          </CharString>
          <CharString index="34">
            rmoveto
            -10 -72 callsubr
            37 -27 callsubr
            -18 -20 -29 -5 -33 -19 vhcurveto
            -144 hmoveto
            -84 callgsubr
          </CharString>
          <CharString index="35">
            -19 -67 -116 0 vvcurveto
            -1 -2 -1 -2 -2 vvcurveto
            -4 3 -4 8 return
          </CharString>
          <CharString index="36">
            4 4 -3 -14 -31 -29 -43 -40 -18 hvcurveto
            0 -91 -208 -188 vhcurveto
            21 callgsubr
            6 -5 2 -7 -15 -22 -9 0 vhcurveto
            -2 -4 -2 -1 -2 hhcurveto
            -5 -1 6 3 21 12 30 16 16 hvcurveto
            31 33 45 -15 62 vvcurveto
            32 -30 2 -6 -92 -88 -167 -85 -6 4 -52 52 77 42 85 39 vhcurveto
            return
          </CharString>
          <CharString index="37">
            -45 -26 -32 -37 -11 hvcurveto
            -2 -1 -2 -1 -2 vhcurveto
            -7 -22 -17 -54 -23 vvcurveto
            -7 1 -4 4 30 103 109 37 4 vhcurveto
            5 vlineto
            20 -11 14 -23 vhcurveto
            return
          </CharString>
          <CharString index="38">
            -79 callsubr
            -10 -14 -1 -3 -10 vhcurveto
            return
          </CharString>
          <CharString index="39">
            hintmask 11011100
            83 callgsubr
            -182 -198 -376 -290 -112 -68 65 110 182 198 375 290 112 68 -64 -110 vhcurveto
            -118 9 rmoveto
            26 0 84 -80 -138 -209 -311 -195 -26 0 -84 80 137 210 311 195 vhcurveto
            return
          </CharString>
          <CharString index="40">
            rmoveto
            35 69 122 203 -61 callsubr
            -118 -201 -50 callsubr
            return
          </CharString>
          <CharString index="41">
            -83 callgsubr
            -44 callsubr
            vhcurveto
            return
          </CharString>
          <CharString index="42">
            -107 -117 -136 -110 -44 28 -26 47 hvcurveto
            161 249 rmoveto
            return
          </CharString>
          <CharString index="43">
            -63 callgsubr
            -11 vlineto
            return
          </CharString>
          <CharString index="44">
            -77 -147 -72 -112 -24 -18 rrcurveto
            0 -3 -3 -4 vvcurveto
            -6 8 -8 45 37 17 7 12 vhcurveto
            7 vlineto
            2 0 4 3 11 vhcurveto
            return
          </CharString>
          <CharString index="45">
            rmoveto
            137 50 50 16 5 -4 1 -3 hvcurveto
            -6 -48 -6 -32 hhcurveto
            -75 -36 16 0 hvcurveto
            -23 -51 -44 -17 -11 15 -10 76 hvcurveto
            return
          </CharString>
          <CharString index="46">
            0 vvcurveto
            0 17 25 4 8 vhcurveto
            2 4 50 callsubr
            11 -14 4 -16 vhcurveto
            -2 hlineto
            -10 -42 -2 -24 -13 hvcurveto
            -38 -71 return
          </CharString>
          <CharString index="47">
            -78 callgsubr
            59 callsubr
            8 callgsubr
            return
          </CharString>
          <CharString index="48">
            -100 -124 2 -70 -54 callsubr
            5 hvcurveto
            return
          </CharString>
          <CharString index="49">
            -10 -24 17 -76 hhcurveto
            -86 -189 -36 -146 hvcurveto
            -107 172 -76 -129 vvcurveto
            -125 -110 -35 -67 -81 -12 66 23 vhcurveto
            84 54 65 9 vvcurveto
            9 -11 2 -8 -17 -13 -7 -9 -12 vhcurveto
            -72 -56 -103 -199 -28 vvcurveto
            return
          </CharString>
          <CharString index="50">
            532 -21 189 -20 hstem
            348 648 rmoveto
            -74 callgsubr
            return
          </CharString>
          <CharString index="51">
            110 -68 64 -112 -38 callgsubr
            return
          </CharString>
          <CharString index="52">
            85 88 167 92 6 30 -2 -32 -62 -45 15 -31 -33 return
          </CharString>
          <CharString index="53">
            hhcurveto
            30 callsubr
            -16 callgsubr
            return
          </CharString>
          <CharString index="54">
            12 callgsubr
            293 428 603 80 74 vhcurveto
            -6 callsubr
            -57 -23 -38 -24 hvcurveto
            -149 -231 -283 -439 -166 vvcurveto
            return
          </CharString>
          <CharString index="55">
            -91 -94 -464 -478 -14 -11 rrcurveto
            -4 -5 80 callsubr
            17 0 6 6 44 1 20 19 vhcurveto
            return
          </CharString>
          <CharString index="56">
            513 185 hstem
            417 698 rmoveto
            -70 callsubr
            return
          </CharString>
          <CharString index="57">
            0 vvcurveto
            0 -18 -24 -4 -8 vhcurveto
            -2 -4 -1 -3 -3 vvcurveto
            -14 21 -1 14 13 37 2 23 12 vhcurveto
            return
          </CharString>
          <CharString index="58">
            -45 callgsubr
            hintmask 10001101
            -41 callgsubr
            return
          </CharString>
          <CharString index="59">
            285 -43 rmoveto
            102 154 339 50 39 -25 4 -12 -79 -89 -62 -53 -68 hvcurveto
            -3 -4 -5 callsubr
            hhcurveto
            -8 -2 8 0 hvcurveto
            21 48 49 21 vvcurveto
            8 -12 2 -12 -29 -17 -10 0 vhcurveto
            return
          </CharString>
          <CharString index="60">
            -80 0 84 26 -45 callsubr
            return
          </CharString>
          <CharString index="61">
            38 58 107 33 vvcurveto
            14 -14 2 return
          </CharString>
          <CharString index="62">
            195 209 311 138 80 0 -84 -26 return
          </CharString>
          <CharString index="63">
            -17 0 11 0 59 84 98 53 8 20 -1 -30 return
          </CharString>
          <CharString index="64">
            -2 -3 -5 callsubr
            return
          </CharString>
          <CharString index="65">
            -92 callgsubr
            endchar
          </CharString>
          <CharString index="66">
            -5 5 -1 5 4 13 0 10 7 vhcurveto
            0 40 50 64 18 18 -9 -24 vhcurveto
            -32 -3 -45 -56 -109 hhcurveto
            -13 -18 -17 -15 -2 1 -4 6 30 58 -6 -43 hvcurveto
            return
          </CharString>
          <CharString index="67">
            45 327 182 52 37 -47 107 -51 50 hvcurveto
            -1 1 rlineto
            7 -7 -9 10 -50 hhcurveto
            0 -23 0 -13 34 callgsubr
            82 -133 -47 vvcurveto
            return
          </CharString>
          <CharString index="68">
            -18 0 21 4 124 176 216 74 38 hvcurveto
            6 3 6 3 6 vvcurveto
            5 return
          </CharString>
          <CharString index="69">
            140 rmoveto
            47 25 50 12 76 callgsubr
            25 callsubr
            vhcurveto
            -303 hlineto
            -47 -25 -52 -16 callgsubr
            5 hvcurveto
            hintmask 01000000
            113 96 1 95 hhcurveto
            endchar
          </CharString>
          <CharString index="70">
            151 -31 rmoveto
            -20 -97 7 119 126 141 178 177 17 74 -12 -55 hvcurveto
            -28 -12 -4 -12 vvcurveto
            -5 4 -7 21 vhcurveto
            22 5 10 8 hhcurveto
            return
          </CharString>
          <CharString index="71">
            -45 -327 -183 -51 -38 47 -106 51 -50 hvcurveto
            -19 19 26 0 22 hhcurveto
            0 23 0 13 vvcurveto
            3 -1 3 -2 4 vhcurveto
            0 -82 133 48 vvcurveto
            return
          </CharString>
          <CharString index="72">
            27 -23 callsubr
            -42 -73 rlineto
            -40 -52 1 -56 -54 callsubr
            6 hvcurveto
            return
          </CharString>
          <CharString index="73">
            rmoveto
            -49 15 callgsubr
            26 -21 callgsubr
            return
          </CharString>
          <CharString index="74">
            22 26 10 20 hvcurveto
            19 -60 -10 76 vvcurveto
            return
          </CharString>
          <CharString index="75">
            142 -57 rmoveto
            -82 -30 57 68 114 116 217 202 19 48 -8 -61 -124 -147 -83 -77 -7 hvcurveto
            -44 -4 -17 -8 -46 return
          </CharString>
          <CharString index="76">
            95 101 267 225 87 50 rrcurveto
            12 7 5 7 6 vvcurveto
            17 -41 1 -16 vhcurveto
            0 -63 0 -39 -16 vhcurveto
            -22 -9 -5 -10 -11 -14 return
          </CharString>
          <CharString index="77">
            170 273 rmoveto
            -22 -72 -131 -191 -19 11 callgsubr
            -15 41 -2 15 17 22 4 16 18 vhcurveto
            48 33 83 207 61 65 return
          </CharString>
          <CharString index="78">
            -48 -38 -39 -29 -22 20 -14 26 51 38 36 34 22 -21 12 -28 hvcurveto
            return
          </CharString>
          <CharString index="79">
            -122 -249 -299 -180 -52 18 -23 24 return
          </CharString>
          <CharString index="80">
            139 114 42 27 -22 4 return
          </CharString>
          <CharString index="81">
            -71 -360 -128 -32 -63 hvcurveto
            -46 -24 -9 -28 -11 vvcurveto
            -29 70 28 281 -114 vhcurveto
            0 4 -4 7 22 22 36 22 vhcurveto
            return
          </CharString>
          <CharString index="82">
            -55 -16 34 39 63 64 125 84 15 6 -10 -9 hvcurveto
            -12 -7 -6 -21 vvcurveto
            -20 9 -22 24 3 7 1 5 2 vhcurveto
            endchar
          </CharString>
          <CharString index="83">
            -2 -54 hhcurveto
            hintmask 01010000
            -59 callsubr
            hintmask 10000000
            21 callsubr
            hintmask 00110000
            73 return
          </CharString>
          <CharString index="84">
            -20 callsubr
            -11 callsubr
            return
          </CharString>
          <CharString index="85">
            -173 -178 -154 hvcurveto
            -14 -16 return
          </CharString>
          <CharString index="86">
            -92 -128 -14 vvcurveto
            -15 34 -1 12 return
          </CharString>
          <CharString index="87">
            rrcurveto
            0 7 8 7 vvcurveto
            return
          </CharString>
          <CharString index="88">
            13 callgsubr
            84 callgsubr
            -59 callsubr
            return
          </CharString>
          <CharString index="89">
            504 -105 callgsubr
            return
          </CharString>
          <CharString index="90">
            23 9 5 26 17 vvcurveto
            11 -1 6 -6 -5 -5 -3 0 vhcurveto
            return
          </CharString>
          <CharString index="91">
            -62 96 -17 -61 vvcurveto
            -69 -141 -70 -88 vhcurveto
            0 -11 -1 -9 vvcurveto
            0 -1 -28 65 138 144 88 91 vhcurveto
            return
          </CharString>
          <CharString index="92">
            341 171 389 169 106 -74 63 -174 -150 -17 -18 12 callsubr
            return
          </CharString>
          <CharString index="93">
            555 234 rmoveto
            143 -163 69 94 vvcurveto
            78 95 22 31 69 10 -45 -14 vhcurveto
            -68 -29 -29 -8 vvcurveto
            return
          </CharString>
          <CharString index="94">
            318 192 rmoveto
            -36 -209 -115 -101 -55 vhcurveto
            -26 -14 rlineto
            -7 -4 16 callgsubr
            -14 38 0 8 return
          </CharString>
          <CharString index="95">
            10 49 162 268 26 32 -20 callsubr
            return
          </CharString>
          <CharString index="96">
            10 -19 1 -10 -22 -31 -7 -27 -16 vhcurveto
            return
          </CharString>
          <CharString index="97">
            2 callgsubr
            2 -6 return
          </CharString>
          <CharString index="98">
            -47 -41 122 -103 103 return
          </CharString>
          <CharString index="99">
            -33 callgsubr
            -3 -27 -20 -44 vhcurveto
            endchar
          </CharString>
          <CharString index="100">
            157 rmoveto
            36 215 118 100 54 vhcurveto
            21 11 rlineto
            7 4 2 4 callgsubr
            14 -32 0 -17 return
          </CharString>
          <CharString index="101">
            5 5 1 5 1 vvcurveto
            15 -1 -21 1 -5 hhcurveto
            -40 return
          </CharString>
          <CharString index="102">
            -3 -1 -3 return
          </CharString>
          <CharString index="103">
            rmoveto
            70 360 114 32 63 hvcurveto
            46 23 10 29 11 vvcurveto
            29 -70 -14 -281 113 vhcurveto
            return
          </CharString>
          <CharString index="104">
            -10 callsubr
            hvcurveto
            return
          </CharString>
          <CharString index="105">
            92 307 114 104 vvcurveto
            47 -68 4 0 -51 -24 -9 0 vhcurveto
            9 -12 -20 5 -18 hhcurveto
            return
          </CharString>
          <CharString index="106">
            0 -158 -184 -146 -7 -56 3 28 vhcurveto
            120 595 349 100 vvcurveto
            endchar
          </CharString>
          <CharString index="107">
            hhcurveto
            10 20 -1 -11 -2 -1 -3 -2 -3 hvcurveto
            0 return
          </CharString>
          <CharString index="108">
            -101 -57 225 168 63 return
          </CharString>
          <CharString index="109">
            -110 68 -65 112 return
          </CharString>
          <CharString index="110">
            1 3 2 vvcurveto
            return
          </CharString>
          <CharString index="111">
            -18 33 -1 6 30 27 10 9 28 0 callgsubr
            return
          </CharString>
          <CharString index="112">
            76 -23 -21 35 58 -35 43 callgsubr
            707 -20 hstemhm
            hintmask 10011000
            307 575 rmoveto
            return
          </CharString>
          <CharString index="113">
            -1 -2 0 -1 -1 vvcurveto
            -7 7 -2 18 vhcurveto
            21 40 3 57 46 -2 -3 60 hhcurveto
            return
          </CharString>
          <CharString index="114">
            0 6 3 callgsubr
            return
          </CharString>
          <CharString index="115">
            13 90 113 166 0 vvcurveto
            return
          </CharString>
          <CharString index="116">
            72 -100 22 57 vvcurveto
            52 67 20 31 14 2 -7 -6 vhcurveto
            -8 -10 -21 -16 vvcurveto
            return
          </CharString>
          <CharString index="117">
            17 callgsubr
            endchar
          </CharString>
          <CharString index="118">
            5 -9 5 -14 -47 -108 -46 -28 vhcurveto
            return
          </CharString>
          <CharString index="119">
            -11 hvcurveto
            -8 vlineto
            -16 -1 -26 -22 -49 vhcurveto
            return
          </CharString>
          <CharString index="120">
            10 -16 0 -8 -10 -39 -2 -19 -19 vhcurveto
            return
          </CharString>
          <CharString index="121">
            12 37 callsubr
            return
          </CharString>
          <CharString index="122">
            -3 -20 118 -89 -21 return
          </CharString>
          <CharString index="123">
            -42 -21 -20 -10 -8 -24 17 -47 hhcurveto
            -278 -212 -394 -160 return
          </CharString>
          <CharString index="124">
            rmoveto
            -72 -70 -67 -53 -29 -10 19 23 29 15 36 8 15 vhcurveto
            1 vlineto
            return
          </CharString>
          <CharString index="125">
            12 6 4 5 4 vvcurveto
            6 -10 3 0 -142 -55 -114 0 vhcurveto
            return
          </CharString>
          <CharString index="126">
            -31 66 310 54 return
          </CharString>
          <CharString index="127">
            16 8 5 4 5 return
          </CharString>
          <CharString index="128">
            39 89 5 92 hhcurveto
            return
          </CharString>
          <CharString index="129">
            35 347 42 3 -20 hstemhm
            189 162 0 71 -71 165 return
          </CharString>
          <CharString index="130">
            -18 -627 131 492 118 return
          </CharString>
          <CharString index="131">
            24 -23 15 -29 -43 -52 -33 -44 vhcurveto
            return
          </CharString>
          <CharString index="132">
            8 -8 1 -6 return
          </CharString>
          <CharString index="133">
            65 callsubr
            27 vhcurveto
            0 108 1 17 52 vhcurveto
            return
          </CharString>
          <CharString index="134">
            104 -23 60 callgsubr
            339 66 59 callgsubr
            return
          </CharString>
          <CharString index="135">
            -13 23 34 -9 57 hhcurveto
            184 127 110 139 hvcurveto
            return
          </CharString>
          <CharString index="136">
            -54 callsubr
            6 hvcurveto
            37 callgsubr
            return
          </CharString>
          <CharString index="137">
            -47 -26 -55 return
          </CharString>
          <CharString index="138">
            -78 -56 -59 -9 vvcurveto
            -9 11 -2 8 6 4 1 0 vhcurveto
            return
          </CharString>
          <CharString index="139">
            -74 -38 -176 -216 -124 vvcurveto
            -4 0 -21 18 76 return
          </CharString>
          <CharString index="140">
            -325 -40 -116 rrcurveto
            34 callsubr
            return
          </CharString>
          <CharString index="141">
            0 -3 -5 -6 vvcurveto
            -10 8 -14 return
          </CharString>
          <CharString index="142">
            -241 -30 -21 419 return
          </CharString>
          <CharString index="143">
            rmoveto
            16 0 8 0 hvcurveto
            return
          </CharString>
          <CharString index="144">
            25 callsubr
            hvcurveto
            return
          </CharString>
          <CharString index="145">
            1 -8 -8 0 -8 hhcurveto
            -116 -113 -61 -75 hvcurveto
            return
          </CharString>
          <CharString index="146">
            -53 -84 -98 -59 0 0 -11 17 46 102 60 77 hvcurveto
            return
          </CharString>
          <CharString index="147">
            -11 vhcurveto
            -10 vlineto
            -16 -2 -26 -21 -47 vhcurveto
            -61 -139 return
          </CharString>
          <CharString index="148">
            27 7 26 31 31 vvcurveto
            3 -1 6 -12 vhcurveto
            endchar
          </CharString>
          <CharString index="149">
            -22 1 19 -13 26 hhcurveto
            34 54 25 44 hvcurveto
            endchar
          </CharString>
          <CharString index="150">
            -24 -18 23 52 180 249 299 122 return
          </CharString>
          <CharString index="151">
            rrcurveto
            -28 -28 -5 -8 -18 hhcurveto
            -14 -6 10 16 35 return
          </CharString>
          <CharString index="152">
            -72 rmoveto
            -33 callsubr
            return
          </CharString>
          <CharString index="153">
            163 65 rmoveto
            23 -18 14 -30 -48 -38 -40 -29 return
          </CharString>
          <CharString index="154">
            100 -16 -21 30 231 238 247 4 -20 return
          </CharString>
          <CharString index="155">
            59 -42 -1 11 vvcurveto
            1 18 135 9 99 vvcurveto
            return
          </CharString>
          <CharString index="156">
            -21 114 -20 hstemhm
            hintmask 01100000
            return
          </CharString>
          <CharString index="157">
            1 3 3 vvcurveto
            return
          </CharString>
          <CharString index="158">
            -6 9 -1 7 return
          </CharString>
          <CharString index="159">
            161 167 -67 67 -67 105 hstemhm
            30 103 return
          </CharString>
          <CharString index="160">
            -1 vlineto
            -13 18 -14 106 88 106 70 97 vhcurveto
            return
          </CharString>
          <CharString index="161">
            -9 -3 -5 -1 -5 -6 hvcurveto
            0 -26 -20 -49 return
          </CharString>
          <CharString index="162">
            21 callsubr
            73 74 66 callgsubr
            return
          </CharString>
          <CharString index="163">
            71 146 222 34 18 -34 1 -6 hvcurveto
            return
          </CharString>
          <CharString index="164">
            -21 callgsubr
            endchar
          </CharString>
          <CharString index="165">
            85 callgsubr
            hvcurveto
            return
          </CharString>
          <CharString index="166">
            89 1 -30 22 hhcurveto
            return
          </CharString>
          <CharString index="167">
            -2 -3 -3 return
          </CharString>
          <CharString index="168">
            hstemhm
            30 100 -100 123 -123 160 return
          </CharString>
          <CharString index="169">
            -12 20 0 7 49 117 192 31 return
          </CharString>
          <CharString index="170">
            112 3 16 19 16 3 30 25 58 return
          </CharString>
          <CharString index="171">
            13 -22 2 -29 vhcurveto
            -64 -6 -42 -7 hhcurveto
            return
          </CharString>
          <CharString index="172">
            11 callgsubr
            -5 3 -8 return
          </CharString>
          <CharString index="173">
            -52 -4 52 6 return
          </CharString>
          <CharString index="174">
            217 -25 rmoveto
            return
          </CharString>
          <CharString index="175">
            -77 -102 -60 -46 return
          </CharString>
          <CharString index="176">
            -3 3 -4 13 45 83 58 78 vhcurveto
            return
          </CharString>
          <CharString index="177">
            554 66 3 -20 hstemhm
            69 135 return
          </CharString>
          <CharString index="178">
            -13 67 -60 -21 655 65 -65 81 return
          </CharString>
          <CharString index="179">
            -17 192 538 -20 33 -20 hstemhm
            return
          </CharString>
          <CharString index="180">
            -20 hstemhm
            267 125 47 116 return
          </CharString>
          <CharString index="181">
            hstemhm
            192 109 -109 144 return
          </CharString>
          <CharString index="182">
            -24 -14 -41 -8 -5 4 -2 3 hvcurveto
            return
          </CharString>
          <CharString index="183">
            47 26 55 return
          </CharString>
          <CharString index="184">
            -34 -180 -40 -136 -34 vhcurveto
            return
          </CharString>
          <CharString index="185">
            hstemhm
            -16 216 395 200 return
          </CharString>
          <CharString index="186">
            151 -23 -21 21 60 -25 -21 return
          </CharString>
          <CharString index="187">
            16 callgsubr
            -10 return
          </CharString>
          <CharString index="188">
            vstem
            67 callsubr
            return
          </CharString>
          <CharString index="189">
            -20 84 callsubr
            return
          </CharString>
          <CharString index="190">
            -20 51 callgsubr
            return
          </CharString>
          <CharString index="191">
            hstemhm
            30 127 return
          </CharString>
          <CharString index="192">
            hstem
            50 141 return
          </CharString>
          <CharString index="193">
            -20 21 -20 hstemhm
            return
          </CharString>
          <CharString index="194">
            107 78 107 return
          </CharString>
        <CharString name=".notdef">
          -267 endchar
        </CharString>
        <CharString name="A">
          -3 callgsubr
          1 -20 hstemhm
          hintmask 11100000
          74 callgsubr
          -93 callsubr
          hintmask 11010000
          0 1 -9 8 vhcurveto
          hintmask 11100000
          2 46 5 4 39 hvcurveto
          -94 callsubr
          -11 callgsubr
          -56 callgsubr
          endchar
        </CharString>
        <CharString name="AE">
          465 -25 60 callgsubr
          275 66 -2 66 176 128 -65 53 -53 65 6 -20 hstemhm
          978 151 hintmask 1101010001000000
          818 686 rmoveto
          17 -21 4 -23 -26 -29 -6 0 vhcurveto
          -95 -199 -22 callsubr
          -46 -1 -37 -1 -7 -3 rlinecurve
          -24 -10 -45 -34 -26 vvcurveto
          0 1 -8 8 2 37 4 5 49 vhcurveto
          -120 -145 -21 callsubr
          vhcurveto
          4 hlineto
          0 63 2 11 23 vhcurveto
          5 12 56 124 72 97 12 16 13 17 14 17 rrcurveto
          1 20 21 1 20 hhcurveto
          83 50 -7 -32 hvcurveto
          -18 -119 -203 -37 vvcurveto
          -15 16 -1 14 33 32 6 23 28 vhcurveto
          0 6 9 15 vhcurveto
          20 28 -3 90 hhcurveto
          51 55 1 1 33 hvcurveto
          hintmask 1101000011000000
          17 1 21 2 12 15 rrcurveto
          32 38 58 107 33 vvcurveto
          16 -16 0 -8 -16 -1 -9 0 -46 callgsubr
          -24 -49 1 36 -75 callsubr
          63 17 17 42 18 hvcurveto
          1 3 1 1 2 vvcurveto
          5 -5 2 -5 85 callgsubr
          vhcurveto
          -20 -20 -2 -27 hhcurveto
          -40 -28 2 0 hvcurveto
          -46 -4 19 14 12 39 112 64 59 hvcurveto
          16 18 32 5 23 hhcurveto
          36 41 -6 -49 hvcurveto
          hintmask 1011000101000000
          -39 -16 -31 0 vhcurveto
          hintmask 1100101001000000
          -2 -5 callsubr
          -2 vvcurveto
          -6 8 -1 8 vhcurveto
          10 hlineto
          40 4 104 159 33 vvcurveto
          11 -20 2 -6 -62 -15 -17 0 vhcurveto
          1 -12 -16 0 -19 hhcurveto
          -46 -61 -2 -1 -54 hvcurveto
          -343 -353 rmoveto
          0 -66 1 -70 vhcurveto
          122 111 134 117 42 hhcurveto
          11 12 -5 -9 hvcurveto
          -1 vlineto
          -32 -2 -83 -193 -89 hhcurveto
          endchar
        </CharString>
        <CharString name="Aacute">
          -36 -21 906 -20 hstem
          -104 callgsubr
          390 468 -104 callsubr
        </CharString>
        <CharString name="Acircumflex">
          -36 -21 391 224 173 9 callgsubr
          hintmask 11010000
          -104 callgsubr
          327 431 -107 callsubr
          hintmask 11100000
          -106 callgsubr
        </CharString>
        <CharString name="Adieresis">
          -3 callgsubr
          31 84 hstemhm
          608 107 -107 177 8 107 hintmask 11111010
          74 callgsubr
          hintmask 11110110
          -89 callgsubr
          272 456 -101 callsubr
        </CharString>
        <CharString name="Agrave">
          -3 callgsubr
          149 -20 hstem
          74 callgsubr
          -89 callgsubr
          274 518 -97 callgsubr
        </CharString>
        <CharString name="Aring">
          -36 -21 391 224 175 32 50 33 hstem
          785 70 vstem
          -104 callgsubr
          370 465 -42 callgsubr
        </CharString>
        <CharString name="Atilde">
          -3 callgsubr
          37 26 callgsubr
          hintmask 11110000
          669 740 -62 callsubr
          -208 -797 36 callsubr
          -100 callgsubr
          hintmask 11101000
          -11 callgsubr
          hintmask 11110000
          -56 callgsubr
          endchar
        </CharString>
        <CharString name="B">
          121 -23 -21 35 49 -41 -21 368 77 222 57 hstemhm
          359 140 -26 26 -26 119 27 122 hintmask 1101101010000000
          hintmask 1101110010000000
          228 -22 rmoveto
          234 130 153 118 hvcurveto
          95 -93 14 20 vvcurveto
          hintmask 1011100110000000
          26 54 -8 74 40 vhcurveto
          57 30 57 56 64 vvcurveto
          115 -114 1 -141 vhcurveto
          hintmask 1101110010000000
          -136 -19 -16 12 callsubr
          -61 25 callgsubr
          -439 -26 vvcurveto
          -15 17 -1 19 15 41 2 27 30 vhcurveto
          0 8 6 13 vhcurveto
          23 3 -13 85 hhcurveto
          hintmask 1011110010000000
          245 279 rmoveto
          -66 -88 -151 -152 -48 -18 20 17 49 217 388 84 103 vhcurveto
          22 18 24 6 39 hhcurveto
          26 44 -5 -48 -78 -98 -91 -111 -28 -23 -42 -26 -3 1 -6 12 hvcurveto
          10 hlineto
          25 66 -7 -82 hvcurveto
          endchar
        </CharString>
        <CharString name="C">
          48 -24 102 70 callsubr
          hintmask 11010000
          234 -24 rmoveto
          165 110 167 50 hvcurveto
          hintmask 10110000
          73 callgsubr
          hintmask 11010000
          -129 -94 -75 0 -25 hhcurveto
          -56 -28 32 60 46 callgsubr
          hvcurveto
          31 callsubr
          56 callsubr
          16 callsubr
          -50 9 -118 156 hvcurveto
          endchar
        </CharString>
        <CharString name="Ccedilla">
          48 -157 32 102 101 70 callsubr
          -37 37 -15 45 hintmask 11101000
          209 -57 rmoveto
          19 32 12 9 3 vhcurveto
          156 10 103 157 49 vvcurveto
          73 callgsubr
          -129 -94 -75 0 -25 hhcurveto
          hintmask 11011000
          -56 -28 32 60 hvcurveto
          hintmask 11101000
          46 callgsubr
          vhcurveto
          31 callsubr
          hintmask 11100100
          56 callsubr
          hintmask 11100010
          16 callsubr
          -46 8 -103 122 -16 hvcurveto
          1 -1 2 -2 35 callgsubr
          -14 -7 -18 -12 -12 -15 22 -3 -16 vvcurveto
          -22 -24 -9 -15 vhcurveto
          -25 -7 10 -5 hhcurveto
          -5 -2 -5 -4 -11 20 -22 30 57 21 31 19 hvcurveto
          31 -25 -4 23 vvcurveto
          endchar
        </CharString>
        <CharString name="D">
          79 callsubr
          654 59 hstemhm
          -28 193 472 107 hintmask 01011100
          232 -23 rmoveto
          -15 callsubr
          -62 -142 -272 -432 -33 vvcurveto
          -13 callgsubr
          405 576 39 callgsubr
          49 218 387 83 104 vhcurveto
          hintmask 10111100
          42 callgsubr
        </CharString>
        <CharString name="E">
          27 callsubr
          hstemhm
          617 151 hintmask 11010110
          -102 callgsubr
          hintmask 10111010
          -97 callsubr
          hhcurveto
          hintmask 11010110
          -80 callgsubr
          endchar
        </CharString>
        <CharString name="Eacute">
          47 callgsubr
          27 112 -20 hstemhm
          617 151 hintmask 10111110
          -102 callgsubr
          -97 callsubr
          hhcurveto
          hintmask 11011110
          -80 callgsubr
          204 788 -104 callsubr
        </CharString>
        <CharString name="Ecircumflex">
          27 callsubr
          34 9 callgsubr
          617 151 hintmask 1101011010000000
          -102 callgsubr
          hintmask 1011101010000000
          -97 callsubr
          hhcurveto
          hintmask 1101010110000000
          -80 callgsubr
          136 764 -107 callsubr
          hintmask 1101011010000000
          -106 callgsubr
        </CharString>
        <CharString name="Edieresis">
          47 callgsubr
          -20 53 84 hstemhm
          543 78 -4 151 hintmask 11011110
          -99 callgsubr
          hintmask 10111110
          -96 callgsubr
          hintmask 11011101
          -67 callgsubr
          78 785 -101 callsubr
        </CharString>
        <CharString name="Egrave">
          104 -23 60 callgsubr
          336 69 59 callgsubr
          148 -20 hstemhm
          617 151 hintmask 11010111
          -100 callsubr
          hintmask 10111011
          -51 callgsubr
          -36 callgsubr
          51 callsubr
          vhcurveto
          hintmask 11010111
          20 callsubr
          hvcurveto
          -72 callgsubr
          -67 callgsubr
          100 844 -97 callgsubr
        </CharString>
        <CharString name="Eth">
          79 callsubr
          338 69 247 59 hstemhm
          637 107 hintmask 01011100
          172 328 rmoveto
          -95 -164 -105 -174 -21 vvcurveto
          hintmask 10111100
          -13 callgsubr
          -15 callsubr
          -18 -41 -35 -66 -42 -72 rrcurveto
          -65 hlineto
          -47 -21 -49 -16 callgsubr
          6 hvcurveto
          545 225 39 callgsubr
          24 55 111 65 117 vhcurveto
          85 hlineto
          47 21 49 10 8 -8 2 -6 hvcurveto
          -32 -33 -1 -34 hhcurveto
          53 92 55 86 33 42 rrcurveto
          42 callgsubr
        </CharString>
        <CharString name="Euro">
          126 -4 56 218 55 61 57 111 131 -58 58 hstemhm
          153 118 hintmask 11101100
          527 386 rmoveto
          38 18 41 36 callgsubr
          -33 -29 -2 -28 hhcurveto
          -72 hlineto
          33 52 34 46 28 30 rrcurveto
          45 43 34 13 61 hhcurveto
          45 50 -3 -58 27 hvcurveto
          0 2 -12 13 23 9 40 20 62 -36 9 -114 -126 -70 -14 -88 -72 vhcurveto
          -12 -14 -39 -56 -44 -71 rrcurveto
          1 -30 -30 0 -30 hhcurveto
          -38 -18 -41 -9 -6 7 -1 5 hvcurveto
          37 32 2 33 hhcurveto
          -12 -21 -12 -21 -11 -21 rrcurveto
          -89 hlineto
          -38 -18 -41 -9 -6 6 -1 5 hvcurveto
          25 26 2 55 hhcurveto
          -29 -63 -21 -60 -43 vvcurveto
          -83 74 -25 125 vhcurveto
          15 hlineto
          121 19 1 47 37 hvcurveto
          17 21 10 27 18 vvcurveto
          14 -13 1 0 -16 -9 -21 -23 -42 vhcurveto
          -29 -52 -42 0 -35 hhcurveto
          hintmask 11110100
          -60 -31 17 45 39 17 56 27 60 hvcurveto
          -1 43 46 0 56 hhcurveto
          39 18 41 36 callgsubr
          -23 -22 -2 -46 hhcurveto
          -40 -32 1 0 hvcurveto
          11 21 12 21 12 21 rrcurveto
          53 48 -1 49 hhcurveto
          endchar
        </CharString>
        <CharString name="F">
          -31 -23 -21 377 66 59 callgsubr
          hstemhm
          605 151 hintmask 11011000
          83 -16 rmoveto
          46 34 40 143 102 131 rrcurveto
          34 27 32 7 37 26 28 -3 32 hhcurveto
          64 17 16 43 18 hvcurveto
          1 2 0 2 2 vvcurveto
          6 -5 1 -4 vhcurveto
          -4 -28 -3 -42 hhcurveto
          -44 -52 0 12 -13 hvcurveto
          -8 7 -1 8 8 vvcurveto
          12 42 112 64 59 vhcurveto
          16 18 29 5 23 hhcurveto
          36 41 -7 -48 hvcurveto
          -46 -19 -27 -5 vvcurveto
          -6 9 -2 7 15 5 5 2 4 vhcurveto
          45 29 85 131 30 vvcurveto
          11 -20 2 -7 -61 -15 -17 0 vhcurveto
          hintmask 11101000
          -63 callgsubr
          -10 vlineto
          -18 -1 -23 -22 -49 vhcurveto
          -61 25 callgsubr
          -438 -26 65 callsubr
          27 22 34 0 28 36 vhcurveto
          endchar
        </CharString>
        <CharString name="G">
          67 -24 96 -78 78 245 69 246 66 3 -20 hstemhm
          52 127 272 174 -49 174 hintmask 10110110
          479 113 rmoveto
          67 109 79 124 26 vvcurveto
          11 -45 3 -51 -63 -72 -5 0 vhcurveto
          -9 -1 -11 -3 -11 -10 rrcurveto
          -14 -13 -12 -18 -10 vvcurveto
          -8 4 -1 8 85 17 -13 -23 -45 -126 -164 -92 -53 -1 51 14 158 218 337 125 vhcurveto
          hintmask 10101101
          49 5 -28 -25 hvcurveto
          -42 -26 -39 -8 vvcurveto
          -14 7 0 15 15 10 6 6 10 vhcurveto
          61 40 82 125 29 vvcurveto
          18 -30 1 -10 -38 -25 -17 0 vhcurveto
          -2 -3 -4 -1 -3 hhcurveto
          -5 -4 2 0 hvcurveto
          hintmask 10110110
          13 -23 -40 2 -7 hhcurveto
          -278 -228 -423 -160 -49 9 -90 95 35 59 10 64 81 hvcurveto
          4 5 10 3 7 hhcurveto
          6 5 -3 -8 2 hvcurveto
          hintmask 01110110
          0 9 -52 32 12 18 50 69 42 vhcurveto
          endchar
        </CharString>
        <CharString name="H">
          102 -23 -21 377 68 300 -20 hstem
          331 122 vstem
          338 576 rmoveto
          -31 -60 -31 -59 -33 -56 -25 -1 -20 -1 -5 -2 rrcurveto
          -24 -9 -41 -25 -25 vvcurveto
          -1 0 -7 15 vhcurveto
          0 24 1 37 2 vhcurveto
          -113 -191 -101 -150 -20 vvcurveto
          -15 16 -1 15 37 24 5 23 30 vhcurveto
          42 33 72 177 86 141 rrcurveto
          1 18 19 0 18 hhcurveto
          82 15 -20 -27 hvcurveto
          -54 -133 -170 -61 vvcurveto
          -22 19 -14 78 19 6 17 0 125 333 497 35 58 vhcurveto
          4 6 2 5 4 vvcurveto
          10 -13 3 -17 -106 -4 -39 0 vhcurveto
          -102 -54 -64 -151 -94 hhcurveto
          0 -60 1 -64 vhcurveto
          63 107 70 116 29 40 -33 callgsubr
          -2 -26 -20 -44 vhcurveto
          endchar
        </CharString>
        <CharString name="I">
          67 callgsubr
          719 -20 hstem
          -91 callsubr
          endchar
        </CharString>
        <CharString name="Iacute">
          67 callgsubr
          865 -20 hstem
          -71 callgsubr
          400 750 -104 callsubr
        </CharString>
        <CharString name="Icircumflex">
          67 callgsubr
          759 106 1 80 callgsubr
          -71 callgsubr
          343 725 -107 callsubr
          hintmask 11000000
          -106 callgsubr
        </CharString>
        <CharString name="Idieresis">
          67 callgsubr
          758 84 hstem
          327 87 callsubr
          vstem
          -91 callsubr
          271 746 -101 callsubr
        </CharString>
        <CharString name="Igrave">
          67 callgsubr
          881 -20 hstem
          -91 callsubr
          282 813 -97 callgsubr
        </CharString>
        <CharString name="J">
          57 -13 63 -43 -21 715 -20 hstemhm
          -9 170 hintmask 10110000
          208 50 rmoveto
          -31 -16 25 26 hvcurveto
          78 83 112 9 vvcurveto
          9 -11 2 -8 -12 -10 -2 -5 -8 vhcurveto
          -76 -40 -128 -228 -31 vvcurveto
          hintmask 01110000
          -18 33 -1 6 21 24 5 12 19 0 callgsubr
          hintmask 10110000
          -13 23 40 -4 7 hhcurveto
          223 1 63 247 132 hvcurveto
          20 36 160 278 42 54 -43 callgsubr
          -10 10 -44 -93 -14 -17 -9 vhcurveto
          -13 vlineto
          -16 -1 -27 -21 -43 vhcurveto
          -78 -156 -79 -138 -63 -101 rrcurveto
          -35 -22 -63 -96 -73 hhcurveto
          endchar
        </CharString>
        <CharString name="K">
          67 -23 -21 43 -21 377 67 279 -20 hstemhm
          327 132 -30 30 hintmask 11110100
          328 576 rmoveto
          -27 -52 -28 -51 -28 -50 -27 -1 -24 -1 -9 -3 rrcurveto
          -24 -9 -33 -22 -25 vvcurveto
          -6 2 2 -2 6 hhcurveto
          69 3 rlineto
          -118 -202 -109 -162 -20 vvcurveto
          -8 1 -9 29 21 37 1 27 34 vhcurveto
          45 35 36 105 87 154 47 83 rcurveline
          34 hlineto
          60 18 -23 -27 hvcurveto
          hintmask 11111000
          -55 -102 -183 -61 vvcurveto
          -19 18 -15 67 9 39 0 16 vhcurveto
          8 -1 4 9 93 80 187 20 43 -64 10 29 44 352 223 17 vvcurveto
          18 -51 0 -14 -104 -19 -38 0 vhcurveto
          -181 -221 -56 -17 -50 -1 58 99 61 102 31 42 -43 callgsubr
          -10 10 -44 -92 -14 -17 -9 vhcurveto
          -9 vlineto
          -16 -1 -25 -21 -49 vhcurveto
          endchar
        </CharString>
        <CharString name="L">
          5 callsubr
          -61 25 callgsubr
          -438 -26 -76 callsubr
          67 123 104 182 41 66 -8 callsubr
        </CharString>
        <CharString name="Lslash">
          5 callsubr
          -19 -43 -38 -69 -44 -78 -75 -29 rcurveline
          -17 callgsubr
          40 18 rlineto
          -91 -158 -97 -162 -16 -76 callsubr
          39 71 81 31 rlineto
          -17 callsubr
          -18 -9 -16 -7 -16 -6 52 92 52 90 27 43 -8 callsubr
        </CharString>
        <CharString name="M">
          272 -16 -21 44 -21 483 243 -231 231 -2 -20 hstemhm
          370 98 37 127 hintmask 11100110
          385 107 rmoveto
          116 64 216 246 52 hhcurveto
          11 4 -4 -6 -12 -16 -22 -10 -15 hvcurveto
          hintmask 11001110
          -49 -75 -152 -235 -79 vvcurveto
          -22 21 -13 78 19 9 17 0 vhcurveto
          138 360 537 7 vvcurveto
          1 3 0 2 2 vvcurveto
          13 -14 7 -33 -102 -6 -17 -6 -8 vhcurveto
          -88 -109 -187 -242 -58 hhcurveto
          -6 -2 6 11 hvcurveto
          hintmask 11010110
          62 79 210 32 vvcurveto
          30 -80 0 0 -112 -22 -31 -9 vhcurveto
          -12 vlineto
          -16 -1 -26 -22 -44 vhcurveto
          -147 -294 -194 -270 -27 11 callgsubr
          -15 27 0 12 10 19 1 12 17 vhcurveto
          44 30 38 142 154 251 rrcurveto
          0 44 82 28 6 2 -6 -10 vhcurveto
          -57 -78 -196 -86 vvcurveto
          -36 13 -7 31 16 22 4 20 11 vhcurveto
          endchar
        </CharString>
        <CharString name="N">
          47 callsubr
          hstemhm
          hintmask 11010000
          28 callgsubr
          63 callsubr
          vhcurveto
          -29 callgsubr
          hintmask 11100000
          -31 callgsubr
          45 callgsubr
          -18 callgsubr
          endchar
        </CharString>
        <CharString name="Ntilde">
          47 callsubr
          47 26 callgsubr
          355 88 48 34 hintmask 11101011
          28 callgsubr
          vhcurveto
          hintmask 11100111
          63 callsubr
          hvcurveto
          -29 callgsubr
          -31 callgsubr
          hintmask 11011011
          45 callgsubr
          hintmask 11101011
          -18 callgsubr
          227 305 -62 callsubr
          endchar
        </CharString>
        <CharString name="O">
          -14 callgsubr
          -73 callgsubr
          endchar
        </CharString>
        <CharString name="OE">
          505 -44 86 -61 61 -49 49 -30 -21 24 -21 339 66 239 54 -34 34 -34 55 -6 -20 hstemhm
          79 123 427 137 252 151 hintmask 0100010100111000
          hintmask 1000011000111000
          866 -90 callsubr
          hvcurveto
          hintmask 1000010001111000
          63 91 128 12 15 vhcurveto
          -54 callgsubr
          33 20 5 10 15 hvcurveto
          hintmask 1000011000111000
          -51 callgsubr
          hintmask 0100010010111000
          -36 callgsubr
          hintmask 1000011000111000
          51 callsubr
          20 callsubr
          vhcurveto
          -72 callgsubr
          -64 callsubr
          -10 -1 -10 -3 -15 vhcurveto
          54 -28 -56 30 -76 hhcurveto
          -38 callgsubr
          2 callsubr
          46 44 10 16 41 hvcurveto
          -10 -18 -6 -13 -4 -77 callgsubr
          -80 callgsubr
          -237 537 rmoveto
          hintmask 0000111000111000
          -9 callgsubr
          vhcurveto
          hintmask 0001011000111000
          -80 0 84 26 hvcurveto
          hintmask 0010011000111000
          -45 callsubr
          vhcurveto
          endchar
        </CharString>
        <CharString name="Oacute">
          -14 callgsubr
          -55 82 112 -20 hstemhm
          1 callgsubr
          -55 55 -68 callsubr
          hintmask 10111010
          63 257 -104 callsubr
        </CharString>
        <CharString name="Ocircumflex">
          -14 callgsubr
          31 9 callgsubr
          1 callgsubr
          -68 callsubr
          230 vmoveto
          -102 callsubr
          -101 callgsubr
          hintmask 11101100
          -106 callgsubr
        </CharString>
        <CharString name="Odieresis">
          -14 callgsubr
          29 84 hstemhm
          79 123 277 107 43 118 -83 107 hintmask 11111010
          -87 callgsubr
          -43 250 rmoveto
          -82 callsubr
          15 -12 22 vhcurveto
          hintmask 11111100
          39 31 31 25 hvcurveto
          -81 callsubr
          -5 callgsubr
          -8 callgsubr
          vhcurveto
          endchar
        </CharString>
        <CharString name="Ograve">
          -14 callgsubr
          153 -20 -73 callgsubr
          -50 318 -97 callgsubr
        </CharString>
        <CharString name="Oslash">
          155 -19 61 -27 -21 664 55 hstemhm
          79 123 hintmask 10110000
          83 callgsubr
          34 -7 29 -12 25 vhcurveto
          18 18 rlineto
          0 24 22 6 7 vhcurveto
          14 callgsubr
          8 -13 3 -13 -5 -34 -1 -23 -21 vhcurveto
          -2 -2 rlineto
          27 -31 -44 15 -53 hhcurveto
          -38 callgsubr
          -37 7 -31 14 -26 hvcurveto
          -44 -45 rlineto
          -5 -5 -2 -5 -3 vvcurveto
          -10 18 0 9 8 31 1 22 21 vhcurveto
          0 1 0 1 vvcurveto
          -24 30 42 -13 50 hhcurveto
          -10 callgsubr
          hvcurveto
          hintmask 01110000
          -123 57 rmoveto
          -139 -145 -142 -144 -141 -142 rrcurveto
          195 9 203 298 135 hhcurveto
          49 19 -31 -31 7 hvcurveto
          -415 -502 rmoveto
          hintmask 10110000
          110 114 186 191 123 125 rrcurveto
          -195 -16 -199 -287 -131 hhcurveto
          -44 -20 25 27 -9 hvcurveto
          endchar
        </CharString>
        <CharString name="Otilde">
          -14 callgsubr
          27 26 callgsubr
          1 callgsubr
          hintmask 11101100
          582 740 -62 callsubr
          165 -201 -80 callsubr
          hintmask 11011100
          -28 callgsubr
          vhcurveto
          hintmask 11101100
          -47 callsubr
          hvcurveto
          endchar
        </CharString>
        <CharString name="P">
          81 -25 -21 328 63 304 57 hstem
          659 111 vstem
          770 570 rmoveto
          83 -48 53 -177 -171 -45 -22 40 callsubr
          -273 -439 -26 26 callsubr
          7 23 38 88 37 62 rrcurveto
          71 41 24 31 136 hhcurveto
          320 40 220 68 hvcurveto
          -306 45 rmoveto
          13 12 26 21 18 callgsubr
          117 195 33 38 hvcurveto
          endchar
        </CharString>
        <CharString name="Q">
          155 -19 61 -31 -21 668 55 hstemhm
          81 123 119 156 -134 134 152 118 hintmask 10111010
          330 -12 rmoveto
          0 5 2 8 vhcurveto
          hintmask 10110110
          16 28 -10 -68 10 hvcurveto
          3 -22 4 2 0 vvcurveto
          40 35 67 41 hvcurveto
          23 -8 8 12 vvcurveto
          17 23 19 17 13 vhcurveto
          139 105 99 215 127 vvcurveto
          -56 callsubr
          vhcurveto
          hintmask 01111010
          2 callsubr
          22 24 1 6 23 vhcurveto
          -7 151 rmoveto
          hintmask 10111010
          -47 22 -2 -25 vvcurveto
          -19 -41 -4 -20 -74 -6 84 26 195 210 311 137 80 0 -84 -26 -158 -132 -236 -42 -34 -7 118 0 0 -1 10 -8 -21 -63 -73 -70 vhcurveto
          endchar
        </CharString>
        <CharString name="R">
          94 -5 -21 31 -21 355 66 245 57 hstemhm
          352 130 -41 41 -41 107 86 114 hintmask 01110101
          129 23 rmoveto
          20 67 233 428 83 104 rrcurveto
          13 11 27 15 30 hhcurveto
          58 43 -15 -62 -78 -111 -90 -124 -31 -20 -35 -23 -4 1 -5 11 hvcurveto
          0 7 1 9 24 41 -7 -46 vhcurveto
          hintmask 01111001
          -54 -89 -154 -61 vvcurveto
          -18 17 -15 67 29 19 2 14 vhcurveto
          9 -2 11 10 vvcurveto
          hintmask 10110011
          92 66 102 46 44 -59 18 20 vvcurveto
          31 70 -11 74 39 vhcurveto
          58 31 57 61 65 vvcurveto
          132 -127 7 -141 -136 -16 -16 40 callsubr
          -270 -425 -27 vvcurveto
          -2 vlineto
          -4 3 -10 28 43 67 12 37 14 vhcurveto
          endchar
        </CharString>
        <CharString name="S">
          53 callgsubr
          3 73 callsubr
          hintmask 10010110
          -14 callsubr
          hintmask 10100110
          62 callsubr
          vhcurveto
          hintmask 10001110
          16 -26 1 -10 -34 -30 -17 0 vhcurveto
          -43 callsubr
          hhcurveto
          hintmask 10100110
          -58 callsubr
          hintmask 01100110
          4 callsubr
          hintmask 10100110
          28 callsubr
          endchar
        </CharString>
        <CharString name="Scaron">
          53 callgsubr
          41 105 7 73 callsubr
          hintmask 10011011
          -14 callsubr
          hintmask 10101011
          62 callsubr
          16 -26 1 -10 -34 -30 -17 0 vhcurveto
          -43 callsubr
          -58 callsubr
          hintmask 01101011
          4 callsubr
          hintmask 10100111
          28 callsubr
          22 579 -98 callsubr
          hintmask 10101011
          -42 callsubr
        </CharString>
        <CharString name="T">
          -64 -7 -21 511 230 -86 66 18 -20 hstemhm
          570 149 hintmask 11001000
          719 694 rmoveto
          7 -3 12 -11 -50 -50 -22 0 vhcurveto
          1 -29 -38 1 -36 hhcurveto
          -73 -70 -2 0 hvcurveto
          -26 20 -52 0 0 vvcurveto
          -34 -111 -208 0 hvcurveto
          -2 -5 -1 -3 -3 vvcurveto
          -9 9 0 0 40 11 20 0 vhcurveto
          110 100 52 14 16 hhcurveto
          13 4 -6 -7 -8 -5 -10 -4 -8 hvcurveto
          -151 -296 -197 -273 -27 11 callgsubr
          hintmask 10011000
          -16 46 -1 15 21 27 5 16 20 vhcurveto
          hintmask 10101000
          45 36 41 128 89 152 50 85 68 119 51 82 rrcurveto
          0 20 35 28 17 11 -17 -35 vhcurveto
          hintmask 10011000
          -21 -4 -28 -9 -34 vhcurveto
          hintmask 11001000
          0 -1 -4 -5 vvcurveto
          hintmask 10101000
          -11 8 -3 12 9 16 3 21 14 vhcurveto
          27 38 77 131 29 vvcurveto
          endchar
        </CharString>
        <CharString name="Thorn">
          130 -25 -21 199 63 304 57 -57 181 hstemhm
          598 111 hintmask 11101000
          hintmask 11011000
          127 7 rmoveto
          3 10 10 23 12 29 rrcurveto
          52 22 54 32 121 hhcurveto
          320 40 220 68 83 -48 53 -177 hvcurveto
          -23 -21 -1 -19 hhcurveto
          25 39 21 32 14 18 -76 callgsubr
          -16 vlineto
          -1 -120 -355 -515 -54 26 callsubr
          255 479 rmoveto
          15 10 49 19 18 callgsubr
          104 196 25 37 hvcurveto
          endchar
        </CharString>
        <CharString name="U">
          56 -25 97 648 -20 85 callsubr
          -98 callgsubr
          endchar
        </CharString>
        <CharString name="Uacute">
          56 -25 97 786 -20 85 callsubr
          vstem
          -84 callsubr
          482 836 -104 callsubr
        </CharString>
        <CharString name="Ucircumflex">
          56 -25 97 677 9 callgsubr
          50 141 hintmask 10110000
          -84 callsubr
          419 808 -107 callsubr
          hintmask 11010000
          -106 callgsubr
        </CharString>
        <CharString name="Udieresis">
          56 -25 97 680 84 85 callsubr
          285 87 callsubr
          -98 callgsubr
          366 833 -101 callsubr
        </CharString>
        <CharString name="Ugrave">
          56 -25 97 791 -20 85 callsubr
          -98 callgsubr
          360 888 -97 callgsubr
        </CharString>
        <CharString name="V">
          -27 72 callsubr
          217 151 hintmask 11010000
          87 -17 rmoveto
          120 23 31 42 25 hvcurveto
          62 107 381 423 111 107 rrcurveto
          6 6 3 5 5 vvcurveto
          14 -28 3 -24 vhcurveto
          0 -78 0 -30 -14 vhcurveto
          hintmask 10110000
          72 callgsubr
          -237 -305 -40 -40 rrcurveto
          -28 -27 -5 -8 -19 hhcurveto
          -14 -6 10 16 hvcurveto
          37 148 407 38 vvcurveto
          11 -8 19 -49 -81 -13 -13 -13 vhcurveto
          hintmask 11010000
          -5 2 -5 -11 vvcurveto
          -15 -3 -21 -7 -42 vhcurveto
          -30 -129 -97 33 callsubr
          40 vhcurveto
          endchar
        </CharString>
        <CharString name="W">
          300 72 callsubr
          493 81 hintmask 11010000
          478 335 rmoveto
          13 2 -9 -8 -28 -65 -177 -33 -95 hvcurveto
          34 callsubr
          41 119 20 32 41 28 vhcurveto
          88 129 323 381 134 127 rrcurveto
          6 6 3 5 5 vvcurveto
          15 -37 2 -15 vhcurveto
          hintmask 10110000
          0 -78 0 -30 -14 vhcurveto
          72 callgsubr
          -227 -305 -40 -40 44 callsubr
          92 279 40 82 hvcurveto
          0 7 10 9 vvcurveto
          9 -6 8 -21 -116 -10 -38 0 vhcurveto
          -82 -136 -158 -215 -33 -33 44 callsubr
          137 364 14 77 hvcurveto
          1 1 50 callsubr
          11 -9 18 -49 vhcurveto
          hintmask 11010000
          -83 -10 -14 -13 hvcurveto
          -5 1 -5 -12 vvcurveto
          -15 -2 -21 -7 -40 vhcurveto
          -31 -129 -102 33 callsubr
          41 119 20 33 40 28 vhcurveto
          57 81 58 82 77 92 rrcurveto
          0 18 24 18 vhcurveto
          endchar
        </CharString>
        <CharString name="X">
          90 -4 -21 27 -21 727 -20 23 -20 hstemhm
          369 107 -93 100 -100 118 hintmask 01101000
          354 265 rmoveto
          8 8 -6 -14 hvcurveto
          -9 -1 -7 -6 vvcurveto
          -4 -72 -4 -61 -41 vvcurveto
          -59 6 -9 39 19 69 4 24 8 -7 8 -2 8 vhcurveto
          -7 22 -2 43 53 vvcurveto
          hintmask 01100100
          58 3 71 4 72 vhcurveto
          4 57 44 24 0 vvcurveto
          137 112 122 87 76 43 rrcurveto
          10 6 4 6 5 vvcurveto
          15 -39 1 -10 vhcurveto
          0 -67 0 -33 -14 vhcurveto
          -19 -8 -5 -9 -9 -12 -26 -33 -57 -52 -79 -70 rrcurveto
          -7 -8 -10 -4 -5 hhcurveto
          -19 0 27 0 hvcurveto
          hintmask 10010010
          4 57 3 44 28 vvcurveto
          46 -20 10 -46 -62 -12 -7 -10 -5 4 -6 1 -4 vhcurveto
          14 -42 3 -64 -46 vvcurveto
          -37 -2 -36 -2 -37 vhcurveto
          -2 -45 -35 -28 0 vvcurveto
          -167 -141 -226 -197 -19 vvcurveto
          -4 5 -8 31 92 22 39 0 vhcurveto
          52 69 93 99 77 67 rrcurveto
          0 18 16 15 vhcurveto
          endchar
        </CharString>
        <CharString name="Y">
          65 callgsubr
          24 -20 74 callsubr
          hintmask 11010000
          -30 callsubr
          rrcurveto
          hintmask 10110000
          -31 callsubr
          rrcurveto
          hintmask 10101000
          -62 callgsubr
          endchar
        </CharString>
        <CharString name="Yacute">
          65 callgsubr
          158 -20 hstem
          170 273 rmoveto
          18 59 4 109 73 52 -1 27 27 vvcurveto
          26 -1 18 -5 12 vhcurveto
          -3 5 -3 7 6 vvcurveto
          11 15 9 70 68 4 -28 -9 -50 -30 -126 -5 -79 vhcurveto
          0 0 -32 20 7 11 5 8 9 vhcurveto
          92 81 121 138 30 39 11 14 5 10 22 9 rrcurveto
          39 16 63 0 0 vvcurveto
          16 41 -1 -17 -6 -5 -7 -12 -7 hvcurveto
          -87 -50 -267 -225 -95 -101 -61 -65 -83 -207 -48 -33 rrcurveto
          -16 -18 -22 -4 -17 hhcurveto
          -15 -41 2 15 hvcurveto
          3 vlineto
          19 131 191 22 72 vhcurveto
          410 528 -104 callsubr
        </CharString>
        <CharString name="Ydieresis">
          65 callgsubr
          54 84 74 callsubr
          30 87 callsubr
          hintmask 11110110
          -30 callsubr
          -31 callsubr
          -62 callgsubr
          303 527 rmoveto
          hintmask 11101110
          -105 callsubr
        </CharString>
        <CharString name="Z">
          71 callsubr
          78 callsubr
          hintmask 10101100
          795 654 55 callgsubr
          hintmask 10011100
          -65 callgsubr
          hintmask 01101100
          -23 callgsubr
          hintmask 10101100
          -1 callsubr
        </CharString>
        <CharString name="Zcaron">
          71 callsubr
          29 105 7 -20 78 callsubr
          hintmask 10100111
          657 809 -98 callsubr
          hintmask 10101011
          -92 callgsubr
          138 -155 55 callgsubr
          hintmask 10011011
          -65 callgsubr
          hintmask 01101011
          -23 callgsubr
          hintmask 10101011
          -1 callsubr
        </CharString>
        <CharString name="a">
          -9 callsubr
          238 66 51 callgsubr
          hintmask 10110000
          309 -10 rmoveto
          hintmask 01110000
          -60 callsubr
          -74 callsubr
        </CharString>
        <CharString name="aacute">
          -9 callsubr
          208 150 -120 66 -66 120 112 83 callsubr
          hintmask 01001110
          495 -18 callsubr
          -186 -514 -45 callgsubr
          hintmask 10010110
          -41 callgsubr
          hintmask 10100110
          -6 -1 -24 -16 vhcurveto
          hintmask 10010110
          -82 callgsubr
        </CharString>
        <CharString name="acircumflex">
          -9 callsubr
          186 52 -30 151 -121 66 55 106 1 83 callsubr
          hintmask 10010011
          425 474 -107 callsubr
          hintmask 01001101
          -107 callgsubr
          -116 -484 -49 callsubr
          hintmask 10010011
          -61 callgsubr
        </CharString>
        <CharString name="acute">
          -47 460 -21 112 -20 hstem
          495 -18 callsubr
          endchar
        </CharString>
        <CharString name="adieresis">
          -9 callsubr
          208 239 -209 66 59 84 51 callgsubr
          125 107 78 39 -39 107 hintmask 1001111010000000
          375 500 rmoveto
          -96 callsubr
          hintmask 1010011010000000
          185 hmoveto
          hintmask 1001111100000000
          -82 callsubr
          16 -12 21 -8 callgsubr
          vhcurveto
          -251 -510 rmoveto
          -60 callsubr
          hvcurveto
          hintmask 0101111010000000
          -74 callsubr
        </CharString>
        <CharString name="ae">
          120 -72 153 -153 225 -194 122 238 66 -1 83 callsubr
          108 100 -100 160 128 97 hintmask 0101011010000000
          hintmask 1001010110000000
          363 -72 rmoveto
          -50 callgsubr
          hintmask 1000111010000000
          68 callgsubr
          -37 -33 -7 -13 -31 vhcurveto
          18 -25 -35 3 -5 hhcurveto
          -64 callgsubr
          1 2 -1 -2 2 hvcurveto
          -8 vlineto
          -65 34 -60 78 vhcurveto
          391 vmoveto
          hintmask 0011011010000000
          10 9 -1 8 hhcurveto
          -54 -44 -40 -60 -22 -57 rrcurveto
          -52 -45 -41 -24 -24 -49 callgsubr
          hintmask 1001011010000000
          176 -29 rmoveto
          10 callsubr
        </CharString>
        <CharString name="agrave">
          -9 callsubr
          238 66 169 83 callsubr
          hintmask 10111000
          355 554 -99 callsubr
          -46 -564 rmoveto
          -78 callgsubr
          hintmask 01111000
          59 callsubr
          8 callgsubr
          -74 callsubr
        </CharString>
        <CharString name="ampersand">
          81 -22 239 -218 77 548 57 hstemhm
          57 116 171 106 129 105 hintmask 01111100
          441 343 rmoveto
          62 64 34 0 vhcurveto
          68 34 111 54 91 vvcurveto
          10 -5 53 -106 -139 -71 -97 -59 -12 vhcurveto
          -2 -7 -4 -34 -41 vvcurveto
          -15 -12 -2 0 vhcurveto
          -103 -34 -173 -104 -169 vvcurveto
          -93 87 -27 62 68 72 39 0 0 4 2 5 4 4 -1 -5 3 vhcurveto
          0 1 -56 108 8 9 10 9 2 0 1 -2 2 vhcurveto
          -6 5 -21 68 33 24 58 13 66 vvcurveto
          10 -5 2 -4 vhcurveto
          -5 -14 -6 -13 hhcurveto
          -35 0 32 0 hvcurveto
          -3 34 -1 22 38 vvcurveto
          -115 7 rmoveto
          16 2 -13 -6 hvcurveto
          1 -66 5 -67 9 -71 rrcurveto
          hintmask 10111100
          -1 vlineto
          -16 -38 -34 -51 -97 0 75 12 90 106 97 47 vhcurveto
          253 244 rmoveto
          -40 -69 -63 -38 -18 -4 15 9 50 45 59 47 22 15 -5 -25 vhcurveto
          endchar
        </CharString>
        <CharString name="apple">
          185 -12 45 63 45 327 44 63 45 -45 163 hstemhm
          0 45 138 54 164 57 128 46 hintmask 1110111110000000
          434 738 rmoveto
          -60 hlineto
          -59 -61 -58 61 rlineto
          -59 hlineto
          90 -85 rlineto
          1 9 9 0 10 hhcurveto
          9 10 0 -1 9 hvcurveto
          288 -349 rmoveto
          hintmask 1111011110000000
          174 -142 142 -174 -175 -141 -142 -174 -174 141 -142 175 174 142 142 174 vhcurveto
          -46 hmoveto
          -150 -121 -121 -149 -150 -121 121 150 149 121 122 150 149 121 -122 -149 vhcurveto
          -128 -100 rmoveto
          134 -221 -10 85 vvcurveto
          32 32 23 48 35 39 -13 -29 33 vhcurveto
          11 43 rlineto
          12 -24 -42 31 -55 hhcurveto
          -57 -74 -24 -79 hvcurveto
          -112 218 -14 -83 vvcurveto
          -35 -36 -24 -54 -36 -45 12 29 -47 vhcurveto
          -9 -47 rlineto
          -18 37 44 -21 48 hhcurveto
          81 74 33 75 hvcurveto
          endchar
        </CharString>
        <CharString name="aring">
          -9 callsubr
          186 52 -30 140 -110 66 76 50 0 33 51 callgsubr
          hintmask 10010101
          440 495 -60 callgsubr
          vhcurveto
          hintmask 01010011
          24 callsubr
          -26 -477 -49 callsubr
          hintmask 10010101
          -61 callgsubr
        </CharString>
        <CharString name="asciicircum">
          -168 137 106 -92 49 callsubr
          198 171 -107 callsubr
          hintmask 10000000
          -106 callgsubr
        </CharString>
        <CharString name="asciitilde">
          -164 135 26 callgsubr
          hintmask 10000000
          hintmask 01000000
          136 135 -40 callgsubr
        </CharString>
        <CharString name="asterisk">
          -212 490 160 -144 144 -95 95 -95 142 -142 164 -113 44 hstemhm
          259 142 -100 100 -100 139 hintmask 0010001000000000
          355 555 rmoveto
          hintmask 0100000010000000
          23 12 -49 16 hhcurveto
          20 14 17 6 hvcurveto
          hintmask 0000011000000000
          14 -39 17 24 vvcurveto
          20 45 2 18 vhcurveto
          7 hlineto
          16 1 29 6 7 -4 2 -8 hvcurveto
          -19 -34 -14 -16 hhcurveto
          -6 -3 1 5 hvcurveto
          23 32 27 16 vvcurveto
          hintmask 0000101000000000
          11 -18 0 -9 vhcurveto
          -43 8 -68 -27 hhcurveto
          hintmask 0001001000000000
          -23 -9 46 -15 hhcurveto
          -12 -23 -12 -14 hvcurveto
          hintmask 1000000100000000
          -20 42 -9 -22 vvcurveto
          -16 -37 -2 -27 -6 vhcurveto
          -20 -5 -2 -23 -3 vvcurveto
          -2 0 -12 11 vhcurveto
          17 38 23 17 hhcurveto
          5 3 -2 -5 hvcurveto
          -23 -31 -22 -18 vvcurveto
          0 1 -14 29 vhcurveto
          hintmask 0010001000000000
          30 1 65 19 hhcurveto
          endchar
        </CharString>
        <CharString name="at">
          485 -204 73 4 60 56 83 -38 38 152 59 58 62 80 64 hstemhm
          48 102 124 107 85 101 1 138 143 101 hintmask 1110111111110000
          277 -204 rmoveto
          93 29 46 18 hvcurveto
          hintmask 1101111111110000
          8 -14 1 -7 -127 -101 43 157 135 125 279 303 173 98 -111 -119 -210 -138 -110 -90 -43 -11 25 23 vhcurveto
          95 139 126 118 vvcurveto
          68 -64 15 -61 -99 -46 -47 -20 -7 5 -3 5 vhcurveto
          10 30 15 35 hhcurveto
          68 8 -28 -12 -10 -5 -8 -12 hvcurveto
          -248 -2 -58 -160 -56 vvcurveto
          -14 7 -62 61 vhcurveto
          73 31 45 22 hhcurveto
          9 3 -2 -5 hvcurveto
          -10 -14 -22 -30 vvcurveto
          -49 29 -43 89 138 228 111 281 136 -105 146 -252 -276 -269 -233 -267 -129 68 -122 161 vhcurveto
          291 411 rmoveto
          -29 -81 -106 -75 -9 -22 1 32 30 41 89 107 10 29 -5 -12 vhcurveto
          endchar
        </CharString>
        <CharString name="atilde">
          -9 callsubr
          208 205 -175 66 43 66 16 83 callsubr
          161 188 hintmask 10011011
          375 428 -66 callgsubr
          hintmask 10100011
          -66 -438 rmoveto
          8 callsubr
          hintmask 10011011
          -83 callsubr
          59 callsubr
          hintmask 01011011
          8 callgsubr
          -75 callgsubr
          hintmask 10010111
          -20 7 -37 42 vhcurveto
          hintmask 10011011
          4 5 4 8 1 hvcurveto
          endchar
        </CharString>
        <CharString name="b">
          -14 -40 -21 38 57 -19 -21 308 28 -28 82 478 -20 hstemhm
          385 103 hintmask 11001110
          178 -23 rmoveto
          177 133 234 100 60 -30 13 -29 hvcurveto
          -77 -39 -54 -22 hhcurveto
          -6 -2 4 5 3 1 5 1 2 hvcurveto
          hintmask 10110110
          142 274 176 197 48 callgsubr
          -9 -19 -486 -840 0 0 -1 -1 -3 vvcurveto
          -6 5 -10 28 38 23 10 22 14 vhcurveto
          17 11 6 6 9 15 19 -17 45 hhcurveto
          hintmask 11001110
          -29 113 rmoveto
          37 142 175 72 19 3 -16 -11 -75 -92 -166 -79 -56 -9 56 0 vhcurveto
          endchar
        </CharString>
        <CharString name="backslash">
          -90 -35 -21 785 -20 hstem
          336 -30 rmoveto
          -26 105 -86 596 -2 32 rrcurveto
          23 -1 -31 3 -17 hhcurveto
          -11 hlineto
          -27 -4 -13 -8 -3 1 -2 0 hvcurveto
          0 104 -652 9 -81 vhcurveto
          -23 3 31 -3 16 hhcurveto
          10 hlineto
          28 4 14 7 3 -1 2 0 hvcurveto
          endchar
        </CharString>
        <CharString name="bar">
          -125 -38 -21 788 -20 hstem
          125 -34 rmoveto
          35 69 369 636 -61 callsubr
          -365 -634 -50 callsubr
          endchar
        </CharString>
        <CharString name="braceleft">
          -179 58 callgsubr
          hstem
          49 57 67 72 vstem
          98 -76 rmoveto
          8 0 10 25 hvcurveto
          9 vlineto
          73 139 181 36 vvcurveto
          31 -25 38 0 vhcurveto
          -3 7 -2 6 4 vvcurveto
          11 9 3 11 4 vhcurveto
          101 34 23 38 46 88 89 171 38 18 31 15 6 3 rcurveline
          18 callsubr
          -36 -63 -54 -100 0 vvcurveto
          -51 -90 -73 -8 0 vvcurveto
          -15 -3 -7 -6 -7 vvcurveto
          -3 2 -4 3 -4 vhcurveto
          6 -7 20 -16 -40 -40 -124 -143 -64 vvcurveto
          -54 29 -63 20 vhcurveto
          endchar
        </CharString>
        <CharString name="braceright">
          -138 58 callgsubr
          hstemhm
          278 71 -42 42 68 57 hintmask 11101000
          425 753 rmoveto
          -8 0 -10 -25 hvcurveto
          -9 vlineto
          -72 -139 -181 -36 -38 29 -30 -18 vvcurveto
          -11 -9 -3 -11 -4 vhcurveto
          -101 -35 -23 -37 -46 -88 -88 -171 -39 -19 -31 -15 rrcurveto
          -6 -3 -16 -6 -9 vvcurveto
          -6 10 -3 0 143 54 114 0 vhcurveto
          36 63 55 100 0 vvcurveto
          50 91 74 7 0 vvcurveto
          hintmask 11011000
          14 4 7 5 7 vvcurveto
          3 -2 4 -3 4 vhcurveto
          -6 8 -20 15 40 40 125 143 65 vvcurveto
          53 -29 63 -20 vhcurveto
          endchar
        </CharString>
        <CharString name="bracketleft">
          -179 58 callgsubr
          hstem
          49 57 vstem
          378 639 rmoveto
          -81 -142 -72 -147 -91 -141 rrcurveto
          -36 -57 -49 -71 -40 vvcurveto
          -54 29 -63 20 8 0 10 25 vhcurveto
          9 vlineto
          38 39 67 36 62 vhcurveto
          260 453 64 110 32 15 26 13 rlinecurve
          6 3 rlineto
          18 callsubr
          endchar
        </CharString>
        <CharString name="bracketright">
          -138 58 callgsubr
          hstem
          417 57 vstem
          145 38 rmoveto
          81 142 72 147 91 141 rrcurveto
          36 57 49 71 40 vvcurveto
          54 -29 63 -20 -8 0 -10 -25 vhcurveto
          -9 vlineto
          -38 -39 -67 -36 -62 vhcurveto
          -260 -453 -64 -110 -32 -15 -26 -13 rlinecurve
          -6 -3 rlineto
          -12 -6 -4 -5 -4 vvcurveto
          -6 10 -3 0 142 55 114 0 vhcurveto
          endchar
        </CharString>
        <CharString name="breve">
          -83 436 64 -64 111 hstemhm
          hintmask 01000000
          366 533 rmoveto
          11 -4 -11 3 -7 hhcurveto
          -10 -1 -18 -13 -43 9 -37 36 55 85 78 18 6 -11 2 -12 -10 -10 -2 -2 -4 76 callgsubr
          -15 -30 -25 -21 -19 hhcurveto
          -12 -10 9 24 -9 hvcurveto
          endchar
        </CharString>
        <CharString name="brokenbar">
          -125 -34 -21 784 -20 hstem
          127 -30 -67 callsubr
          245 429 -67 callsubr
          endchar
        </CharString>
        <CharString name="bullet">
          -223 119 127 hstem
          76 163 vstem
          181 246 rmoveto
          -59 -46 -48 -36 -26 24 -17 32 62 45 44 41 26 -25 16 -33 hvcurveto
          endchar
        </CharString>
        <CharString name="c">
          -107 -43 80 52 callsubr
          hintmask 10011000
          340 204 rmoveto
          hintmask 10101000
          -30 callgsubr
          -45 19 -63 91 105 59 69 26 2 -2 9 54 callsubr
          vhcurveto
          hintmask 11001000
          -25 callsubr
        </CharString>
        <CharString name="caron">
          -83 435 105 -86 49 callsubr
          385 506 -98 callsubr
          hintmask 10000000
          -42 callsubr
        </CharString>
        <CharString name="ccedilla">
          -107 -156 27 87 79 52 callsubr
          -21 21 hintmask 11001100
          340 204 rmoveto
          hintmask 11010100
          -30 callgsubr
          -42 16 -57 75 -8 hvcurveto
          1 -1 1 0 -48 callgsubr
          hvcurveto
          hintmask 11010010
          63 callgsubr
          11 11 14 12 4 vhcurveto
          97 5 55 64 25 vvcurveto
          2 -2 9 -9 -3 -5 -1 -5 -6 vhcurveto
          0 -26 -20 -49 vhcurveto
          hintmask 11100100
          -25 callsubr
        </CharString>
        <CharString name="cedilla">
          -107 -156 27 91 -20 hstem
          112 38 vstem
          157 -42 rmoveto
          0 -18 4 -11 -5 -4 -1 -2 vhcurveto
          0 4 -2 -48 callgsubr
          63 callgsubr
          12 14 15 14 2 vhcurveto
          endchar
        </CharString>
        <CharString name="cent">
          -92 -41 -21 52 80 261 69 48 -20 hstem
          43 100 vstem
          348 426 rmoveto
          -4 -8 -6 -8 -6 -10 rrcurveto
          -189 -13 -100 -188 -98 vvcurveto
          -36 11 -48 48 -19 vhcurveto
          -10 -18 -10 -15 -6 -10 rrcurveto
          0 -5 -7 -3 vvcurveto
          -7 11 0 8 14 18 4 17 10 vhcurveto
          18 31 rlineto
          1 hlineto
          105 59 69 26 0 -2 11 54 callsubr
          -7 -6 0 1 -6 vhcurveto
          59 104 rlineto
          0 39 70 40 69 vhcurveto
          -18 13 -2 -24 20 hhcurveto
          4 6 1 5 2 hvcurveto
          29 62 40 25 9 vvcurveto
          14 -34 8 -28 3 vhcurveto
          8 13 7 12 5 7 rrcurveto
          0 5 6 4 vvcurveto
          6 -13 1 -6 -14 -18 -5 -17 -10 vhcurveto
          -143 -249 rmoveto
          0 -23 -40 -26 -47 vhcurveto
          -10 12 -3 17 22 vvcurveto
          63 66 127 83 vhcurveto
          1 hlineto
          endchar
        </CharString>
        <CharString name="circumflex">
          -47 440 106 -92 49 callsubr
          425 474 -107 callsubr
          hintmask 10000000
          -106 callgsubr
        </CharString>
        <CharString name="colon">
          -218 -3 105 156 105 hstem
          19 135 15 134 vstem
          106 102 -34 callsubr
          149 261 rmoveto
          -48 15 callgsubr
          25 57 callsubr
        </CharString>
        <CharString name="comma">
          -236 -71 173 -83 -21 hstemhm
          29 134 hintmask 10100000
          46 callsubr
          vhcurveto
          hintmask 01100000
          5 callgsubr
          hintmask 10100000
          69 callsubr
          endchar
        </CharString>
        <CharString name="copyright">
          -107 -20 31 32 36 116 30 36 27 hstemhm
          25 46 37 47 75 140 -45 45 hintmask 11111110
          137 -20 -47 callgsubr
          -2 -108 rmoveto
          19 44 29 23 4 vvcurveto
          9 -20 1 0 vhcurveto
          -19 -2 -10 -10 -3 -2 1 -3 hhcurveto
          -76 -52 -93 -41 -20 9 -28 41 47 26 31 11 hvcurveto
          hintmask 11111101
          1 -1 4 -4 -1 -2 0 -3 -3 vhcurveto
          0 -12 -8 -22 -24 -7 15 17 28 28 56 38 7 2 -4 -5 vhcurveto
          -5 -3 -3 -9 vvcurveto
          -9 4 -10 11 1 3 1 2 1 vhcurveto
          endchar
        </CharString>
        <CharString name="d">
          -41 -32 104 244 53 483 -20 hstem
          20 115 vstem
          370 288 40 callgsubr
          144 82 38 11 -18 -10 vhcurveto
          141 79 rmoveto
          155 278 154 174 17 vvcurveto
          15 -22 1 -5 -40 -51 -4 -40 -20 vhcurveto
          -5 -10 -211 -377 -47 -61 rrcurveto
          -3 -2 -5 -1 -3 -11 -12 13 -38 hhcurveto
          -45 -31 -7 -12 -28 hvcurveto
          -131 -56 -93 -164 -93 vvcurveto
          -56 32 -13 21 21 45 1 82 85 vhcurveto
          0 6 49 callgsubr
          -22 7 -32 41 vhcurveto
          0 9 -1 4 13 vhcurveto
          33 105 173 276 0 vvcurveto
          endchar
        </CharString>
        <CharString name="dagger">
          84 -86 -21 498 71 -71 180 hstemhm
          hintmask 11000000
          359 381 rmoveto
          0 -223 -391 -46 -71 vhcurveto
          -58 callgsubr
          53 91 192 337 15 25 6 12 rcurveline
          14 hlineto
          hintmask 10100000
          30 7 -27 callgsubr
          -6 -35 -4 -65 -27 -10 1 -11 hhcurveto
          15 27 17 28 18 -35 callsubr
          30 31 3 65 hhcurveto
          42 hlineto
          -3 -4 -2 -5 -2 -3 rrcurveto
          endchar
        </CharString>
        <CharString name="daggerdbl">
          84 -86 -21 147 73 278 75 -75 180 hstemhm
          hintmask 11100000
          286 41 rmoveto
          30 7 -27 callgsubr
          -57 -58 -2 -64 hhcurveto
          153 267 6 12 rlineto
          14 hlineto
          30 7 -27 callgsubr
          -50 -49 -2 -55 hhcurveto
          16 27 17 27 17 -35 callsubr
          hintmask 11010000
          37 callgsubr
          42 hlineto
          -3 -4 -2 -5 -2 -3 rrcurveto
          0 -80 -140 -74 -128 vhcurveto
          1 -36 -41 0 -46 29 callsubr
          15 hlineto
          -33 -56 -28 -46 -13 -21 rrcurveto
          -58 callgsubr
          66 114 rlineto
          39 hlineto
          endchar
        </CharString>
        <CharString name="degree">
          -195 417 32 78 36 hstem
          194 49 79 50 vstem
          268 449 rmoveto
          -18 -7 9 12 23 27 34 28 17 7 -9 -12 -23 -27 -34 -27 hvcurveto
          -13 -32 rmoveto
          62 55 60 43 24 -18 19 -43 -67 -50 -57 -43 -26 18 -20 43 hvcurveto
          endchar
        </CharString>
        <CharString name="dieresis">
          -47 444 84 hstem
          268 87 callsubr
          vstem
          375 500 -101 callsubr
        </CharString>
        <CharString name="divide">
          91 189 84 -84 139 70 138 -84 84 hstemhm
          261 108 39 108 hintmask 10011100
          570 324 -19 callsubr
          55 callsubr
          -54 184 rmoveto
          17 -1 -16 11 -21 hhcurveto
          hintmask 01101100
          -36 -34 -29 -26 -5 callgsubr
          38 33 31 25 hvcurveto
          -147 -263 rmoveto
          17 -1 -16 11 -22 hhcurveto
          -35 -34 -29 -26 -18 15 -11 22 38 33 29 27 hvcurveto
          endchar
        </CharString>
        <CharString name="dollar">
          57 -22 -21 39 60 -37 -21 628 58 45 -20 hstemhm
          253 120 45 111 hintmask 10111110
          529 235 rmoveto
          77 -50 56 -44 49 vhcurveto
          25 43 47 83 40 68 rrcurveto
          19 -14 4 -20 -8 -65 -28 -29 -8 vvcurveto
          -11 19 0 7 47 112 185 29 15 -27 1 -6 -23 -21 -6 -10 -19 vhcurveto
          60 callsubr
          0 -3 hhcurveto
          -5 -11 5 4 -20 hvcurveto
          19 30 rlineto
          0 6 8 4 vvcurveto
          9 -16 1 -8 -17 -22 -6 -21 -13 vhcurveto
          -11 -18 rlineto
          -7 hlineto
          -82 -182 -34 -140 -54 45 -48 43 -47 hvcurveto
          -32 -56 -73 -129 -55 -95 rrcurveto
          -19 20 -3 27 13 81 52 63 8 vvcurveto
          9 -10 2 -8 -5 -5 -1 0 vhcurveto
          -65 -134 -254 -33 -17 31 -1 6 28 29 8 11 25 hvcurveto
          2 3 87 callgsubr
          hhcurveto
          5 8 -5 -5 13 hvcurveto
          -19 -31 rlineto
          -3 -4 -1 -4 -3 vvcurveto
          -8 9 -3 13 17 22 6 21 13 vhcurveto
          8 14 rlineto
          hintmask 11011110
          -1 10 11 -1 13 hhcurveto
          177 121 106 133 hvcurveto
          -151 81 rmoveto
          23 -32 17 -34 -40 vvcurveto
          -121 -105 -33 -65 -6 -6 0 1 -5 vhcurveto
          167 406 rmoveto
          -15 21 -10 22 23 vvcurveto
          72 85 23 33 2 vhcurveto
          endchar
        </CharString>
        <CharString name="dotaccent">
          -241 424 104 hstem
          245 134 vstem
          379 493 32 callgsubr
          42 callsubr
        </CharString>
        <CharString name="dotlessi">
          35 callsubr
          -20 hstem
          -93 callgsubr
          endchar
        </CharString>
        <CharString name="e">
          1 callsubr
          61 callsubr
          128 97 hintmask 11010100
          hintmask 11001100
          142 -57 rmoveto
          hintmask 11100100
          -66 callsubr
          endchar
        </CharString>
        <CharString name="eacute">
          1 callsubr
          -63 103 112 -20 hstemhm
          30 100 23 165 0 97 0 55 hintmask 11011010
          -32 callsubr
          7 callgsubr
          hintmask 10111101
          39 callsubr
          152 199 -104 callsubr
        </CharString>
        <CharString name="ecircumflex">
          1 callsubr
          41 106 1 -20 61 callsubr
          128 97 hintmask 11101001
          -32 callsubr
          vvcurveto
          hintmask 11100011
          7 callgsubr
          hintmask 11010101
          39 callsubr
          49 169 -107 callsubr
          hintmask 11101001
          -106 callgsubr
        </CharString>
        <CharString name="edieresis">
          1 callsubr
          45 84 61 callsubr
          33 107 -12 97 -7 107 hintmask 1111001010000000
          142 -57 rmoveto
          -83 callgsubr
          vhcurveto
          hintmask 1110100100000000
          -44 callsubr
          hvcurveto
          hintmask 1110011010000000
          12 195 rmoveto
          hintmask 1111000100000000
          -105 callsubr
        </CharString>
        <CharString name="egrave">
          1 callsubr
          155 -20 61 callsubr
          59 166 -97 97 hintmask 11110010
          hintmask 11101001
          142 -57 rmoveto
          -66 callsubr
          -14 249 -92 callsubr
          hintmask 11100110
          1 6 -36 41 -23 42 rrcurveto
          hintmask 11110010
          16 -9 -2 12 -12 hhcurveto
          endchar
        </CharString>
        <CharString name="eight">
          104 -4 61 576 58 hstem
          70 112 107 115 50 121 45 105 vstem
          548 403 rmoveto
          92 31 85 48 93 vvcurveto
          107 -116 9 -42 -172 -106 -123 -76 -30 12 -26 14 -16 vhcurveto
          3 -4 3 -5 -6 vvcurveto
          -10 -8 -11 -22 -8 vhcurveto
          -118 -42 -103 -62 -134 vvcurveto
          -23 20 -119 167 170 148 101 170 38 -19 33 -21 23 vhcurveto
          -5 5 -5 7 8 vvcurveto
          8 6 8 17 6 vhcurveto
          -276 -346 rmoveto
          -56 -34 33 58 133 144 63 49 41 38 -71 -42 -103 -81 -71 -101 hvcurveto
          213 381 rmoveto
          -2 -6 -6 -1 -4 hhcurveto
          -14 -6 9 0 hvcurveto
          -28 28 -17 26 38 vvcurveto
          13 25 84 106 49 36 -25 -48 -61 -57 -34 -78 -27 vhcurveto
          endchar
        </CharString>
        <CharString name="ellipsis">
          172 -3 104 hstem
          14 135 76 135 76 135 cntrmask 01110000
          100 101 rmoveto
          -29 callsubr
          211 hmoveto
          -29 callsubr
          211 hmoveto
          -29 callsubr
          endchar
        </CharString>
        <CharString name="emdash">
          255 141 61 callgsubr
          629 137 13 callgsubr
          hintmask 10000000
          -27 -159 -24 callsubr
          186 66 callgsubr
          endchar
        </CharString>
        <CharString name="endash">
          24 77 callgsubr
          399 -38 callsubr
        </CharString>
        <CharString name="equal">
          185 228 72 -52 -21 162 72 3 80 callgsubr
          664 389 rmoveto
          76 callsubr
          11 hvcurveto
          hintmask 10010000
          7 -7 2 -6 vhcurveto
          hintmask 10100000
          -24 -39 -3 -45 hhcurveto
          hintmask 10010000
          -103 -137 3 -75 hhcurveto
          30 callsubr
          -11 hvcurveto
          hintmask 10100000
          -8 9 -1 6 vhcurveto
          28 46 2 53 100 123 -2 71 hhcurveto
          -93 -161 rmoveto
          2 callgsubr
          1 -6 hvcurveto
          -28 -47 -2 -54 -100 -123 2 -71 hhcurveto
          30 callsubr
          -10 hvcurveto
          hintmask 01100000
          -8 8 -2 6 vhcurveto
          28 47 3 54 hhcurveto
          hintmask 10100000
          99 124 -2 71 hhcurveto
          endchar
        </CharString>
        <CharString name="eth">
          -23 -28 104 -76 -21 342 52 426 -20 hstemhm
          25 115 425 81 -81 170 hintmask 10111010
          424 365 rmoveto
          -3 -3 -4 -1 -4 -8 -10 12 -56 hhcurveto
          -177 -137 -218 -114 -55 32 -14 20 22 43 1 82 86 hvcurveto
          0 7 49 callgsubr
          hintmask 01111010
          -33 18 -20 31 3 6 1 10 3 vhcurveto
          33 105 127 196 46 81 35 60 56 86 26 79 14 5 21 8 39 16 rrcurveto
          -17 callsubr
          hintmask 10111100
          -27 -13 -25 -10 -20 -8 rrcurveto
          8 vlineto
          58 -32 72 -80 vhcurveto
          0 -15 -5 -9 vvcurveto
          0 7 -6 6 -3 vhcurveto
          0 33 -27 -60 vvcurveto
          -20 -3 -20 -5 -21 vhcurveto
          -31 -11 -40 -16 -39 -15 rrcurveto
          -17 callgsubr
          26 12 37 15 34 13 rrcurveto
          -41 -102 -69 -93 0 vvcurveto
          -49 -73 40 callgsubr
          145 82 38 11 -19 -10 vhcurveto
          endchar
        </CharString>
        <CharString name="exclam">
          -171 3 104 546 -20 hstem
          18 135 vstem
          513 639 rmoveto
          13 -20 1 -5 vhcurveto
          -1 hlineto
          -97 -21 -31 0 hvcurveto
          -97 -216 -153 -236 0 0 -6 -9 -6 vvcurveto
          -7 11 -1 17 18 28 4 22 12 vhcurveto
          68 121 246 316 29 vvcurveto
          -360 -567 rmoveto
          22 -1 -18 13 -26 hhcurveto
          -34 -56 -24 -45 -22 20 -13 26 33 56 25 44 hvcurveto
          endchar
        </CharString>
        <CharString name="exclamdown">
          -148 -180 -21 546 105 hstem
          243 134 vstem
          243 380 rmoveto
          -21 20 -14 26 35 53 25 45 21 -19 14 -27 -34 -54 -26 -44 vhcurveto
          -360 -567 rmoveto
          -13 19 -1 5 36 59 3 28 24 vhcurveto
          98 216 152 236 0 0 6 9 6 vvcurveto
          7 -9 1 -19 -18 -27 -4 -21 -12 vhcurveto
          -68 -122 -246 -316 -29 vvcurveto
          endchar
        </CharString>
        <CharString name="f">
          -61 -542 183 582 137 -63 63 355 69 callgsubr
          44 -44 100 189 107 hintmask 11011011
          402 447 rmoveto
          88 178 217 137 44 -20 7 -21 -91 -176 -244 -246 -137 hvcurveto
          hintmask 10111011
          79 callgsubr
          -12 -13 -1 -6 -9 hvcurveto
          -28 -18 -8 -13 -9 vvcurveto
          -6 4 -4 5 42 9 -14 -10 vhcurveto
          hintmask 11011101
          -5 callsubr
          -1 -2 vhcurveto
          -222 -370 -149 -313 -78 vvcurveto
          -21 2 -25 36 169 368 531 175 vhcurveto
          81 -56 -8 28 vvcurveto
          33 128 23 0 vhcurveto
          34 9 2 20 4 vvcurveto
          1 vlineto
          10 -11 1 0 vhcurveto
          -54 -37 -6 -24 hhcurveto
          -22 -10 5 18 49 176 283 55 5 3 -4 -7 -40 -77 -139 -80 -54 hvcurveto
          -3 -2 -10 -9 -7 vvcurveto
          -3 3 -3 8 vhcurveto
          -174 -224 rmoveto
          34 10 -45 -40 -192 -248 -305 -47 -14 -1 16 4 hvcurveto
          1 vlineto
          73 118 254 126 217 vhcurveto
          6 4 8 11 10 hhcurveto
          endchar
        </CharString>
        <CharString name="fi">
          127 -427 132 603 68 -48 48 294 121 hstemhm
          -143 129 306 81 259 102 hintmask 11011110
          427 -43 rmoveto
          8 5 19 0 hvcurveto
          48 99 120 210 53 68 rrcurveto
          2 2 20 callgsubr
          -26 5 -12 vhcurveto
          -74 -68 -6 -69 hhcurveto
          -53 -40 5 19 49 138 227 55 8 4 -7 -11 -37 -42 -86 -77 -61 hvcurveto
          0 -10 -11 -7 vvcurveto
          -4 3 -3 9 78 144 160 138 44 -22 6 -20 -92 -138 -172 -246 -137 vhcurveto
          79 callgsubr
          -13 -13 -1 -6 -9 hvcurveto
          -24 -17 -8 -13 -9 vvcurveto
          -7 5 -4 6 38 8 -12 -11 -6 -3 -6 -1 -2 vhcurveto
          -218 -362 -91 -211 -68 vvcurveto
          -21 5 -36 42 178 291 441 129 73 -42 26 -28 vhcurveto
          -1 hlineto
          -4 -12 -1 -9 hvcurveto
          -11 6 -5 -24 vvcurveto
          -177 -202 -310 -88 -13 -3 17 9 57 59 142 101 183 vhcurveto
          hintmask 10111110
          112 201 129 9 124 5 rrcurveto
          -7 -82 -125 -192 -37 vvcurveto
          -37 32 -23 16 vhcurveto
          307 542 rmoveto
          -26 -29 -28 -36 -10 vhcurveto
          -2 -8 -7 -1 -7 hhcurveto
          -26 -21 14 22 43 55 26 33 24 22 -14 -24 hvcurveto
          endchar
        </CharString>
        <CharString name="five">
          29 -7 64 341 63 120 106 -106 118 hstemhm
          21 136 257 115 hintmask 11011100
          hintmask 11101100
          671 699 rmoveto
          -57 -30 -16 0 hvcurveto
          3 -45 -35 1 -27 hhcurveto
          -76 -13 -8 0 hvcurveto
          -26 -158 -266 -15 -1 hvcurveto
          -3 vlineto
          -4 1 -6 11 vhcurveto
          0 47 13 48 51 53 -14 -59 -112 -105 -156 -88 -49 -15 30 36 vhcurveto
          61 39 70 3 vvcurveto
          8 -15 0 0 -63 -97 -201 -25 -22 26 -24 135 212 135 228 126 98 -99 16 -28 vhcurveto
          -29 -23 -7 -14 hhcurveto
          -10 -5 3 12 0 44 112 90 hvcurveto
          51 44 -8 32 hhcurveto
          hintmask 11011100
          14 12 1 5 8 hvcurveto
          22 12 45 67 28 vvcurveto
          8 -3 5 -9 vhcurveto
          endchar
        </CharString>
        <CharString name="fl">
          101 -542 183 1074 69 callgsubr
          50 -50 110 179 107 hintmask 11101100
          382 -53 callsubr
          20 492 rmoveto
          -8 -3 3 3 7 10 9 3 2 hvcurveto
          80 54 77 139 40 vvcurveto
          7 -3 4 -5 vhcurveto
          hintmask 11110100
          -55 -176 -283 -49 -18 10 -5 22 hvcurveto
          24 37 6 54 hhcurveto
          0 11 -1 -10 vvcurveto
          -1 vlineto
          -4 -2 -20 -34 -9 vhcurveto
          0 -128 -23 -33 -28 56 8 -81 vvcurveto
          -175 -368 -531 -169 -36 -2 25 21 78 149 313 222 370 vhcurveto
          1 2 50 callsubr
          10 -9 14 -42 -5 -4 4 6 9 8 13 28 18 vhcurveto
          6 9 13 1 12 hhcurveto
          16 hlineto
          13 10 1 7 4 hvcurveto
          246 137 176 244 91 hhcurveto
          21 20 -7 -44 -137 -178 -217 -88 hvcurveto
          -174 -224 rmoveto
          -10 -8 -11 -6 -4 hvcurveto
          -126 -217 -118 -254 -73 vvcurveto
          -1 vlineto
          -4 1 -16 14 47 248 305 192 40 -10 45 -34 vhcurveto
          endchar
        </CharString>
        <CharString name="four">
          72 -5 250 -68 68 446 -20 hstemhm
          91 148 hintmask 01110000
          737 674 rmoveto
          11 -5 6 -54 -31 -43 -3 -17 -32 vhcurveto
          -110 -56 -371 -304 -92 vvcurveto
          hintmask 10110000
          -36 110 -6 113 vhcurveto
          24 hlineto
          -77 -126 -25 -23 -12 vvcurveto
          -10 9 -11 60 51 12 4 24 9 vhcurveto
          6 16 4 14 6 14 8 20 20 41 28 51 rrcurveto
          41 hlineto
          40 21 46 11 13 -4 0 -6 hvcurveto
          -1 hlineto
          -5 -1 -20 -1 -29 -1 88 160 122 207 28 36 rrcurveto
          0 13 16 9 vvcurveto
          -203 -150 rmoveto
          -64 -120 -50 -90 -41 -69 rrcurveto
          -72 3 -68 9 25 vvcurveto
          58 220 211 66 10 2 -7 -6 -7 -3 -7 0 vhcurveto
          endchar
        </CharString>
        <CharString name="fraction">
          -82 15 -21 703 -20 hstem
          17 vmoveto
          -87 callsubr
          endchar
        </CharString>
        <CharString name="g">
          -21 -634 131 482 116 245 65 hstem
          -245 124 152 126 vstem
          -103 -503 rmoveto
          -17 -1 20 4 hvcurveto
          1 vlineto
          124 176 217 74 37 vhcurveto
          6 3 6 3 7 vvcurveto
          6 -8 1 -4 vhcurveto
          -3 hlineto
          -28 callsubr
          248 422 903 0 hvcurveto
          1 2 0 2 1 vvcurveto
          11 -26 4 -12 -48 -3 -14 0 vhcurveto
          -131 -83 -83 -49 -35 hhcurveto
          -15 -6 11 14 90 109 130 113 hvcurveto
          93 13 -31 16 hhcurveto
          14 3 24 6 60 -86 6 -14 -245 -142 -239 -126 -12 0 -49 41 hvcurveto
          97 67 100 25 hhcurveto
          4 4 -3 -12 -21 -276 -546 -96 hvcurveto
          endchar
        </CharString>
        <CharString name="germandbls">
          100 -8 -21 22 49 580 55 hstemhm
          364 119 -31 109 60 117 hintmask 11101100
          hintmask 11110100
          452 200 rmoveto
          -82 -147 -76 -86 vhcurveto
          -4 -8 1 -1 hhcurveto
          -8 -6 -9 0 -34 37 -7 39 149 144 102 106 hvcurveto
          68 -78 32 50 77 255 19 132 vvcurveto
          93 -135 5 -40 -131 -85 -28 -56 -24 vhcurveto
          -67 -152 -275 -429 -26 vvcurveto
          -2 vlineto
          hintmask 11101100
          -12 21 -1 12 17 66 2 35 15 vhcurveto
          28 67 218 413 67 85 rrcurveto
          29 23 48 20 47 hhcurveto
          31 47 -6 -44 hvcurveto
          -126 -257 -10 -74 -66 88 9 -105 vvcurveto
          endchar
        </CharString>
        <CharString name="grave">
          -47 452 -21 123 -20 hstem
          355 554 -97 callgsubr
        </CharString>
        <CharString name="greater">
          118 151 -21 341 -20 hstem
          428 193 vstem
          72 130 -4 callsubr
          27 callgsubr
          77 callsubr
          54 callgsubr
          endchar
        </CharString>
        <CharString name="greaterequal">
          118 130 66 -47 43 callgsubr
          443 -20 hstemhm
          478 193 hintmask 00111000
          122 231 -4 callsubr
          hintmask 10011000
          27 callgsubr
          hintmask 01011000
          77 callsubr
          hintmask 10011000
          54 callgsubr
          hintmask 01011000
          184 -102 rmoveto
          hintmask 00111000
          27 41 -1 77 29 callgsubr
          -30 -34 0 -30 -105 -90 3 -89 hhcurveto
          -42 -24 -50 -10 -7 8 -1 6 hvcurveto
          5 hlineto
          2 30 41 0 38 55 35 -1 34 hhcurveto
          endchar
        </CharString>
        <CharString name="guillemotleft">
          145 -31 -21 453 86 callsubr
          68 102 116 103 hintmask 11011000
          389 -7 callsubr
          -15 -12 -1 0 vhcurveto
          -36 callsubr
          -219 20 rmoveto
          44 220 117 73 39 vhcurveto
          7 4 2 4 callgsubr
          hintmask 10111000
          14 -31 0 -16 vhcurveto
          hintmask 11011000
          -14 -13 -1 0 hvcurveto
          -52 -278 -163 -52 -31 58 -143 48 -46 hvcurveto
          -18 18 28 0 21 hhcurveto
          0 24 0 14 vvcurveto
          3 -1 2 -2 4 vhcurveto
          0 -92 145 61 vvcurveto
          endchar
        </CharString>
        <CharString name="guillemotright">
          204 -32 43 callgsubr
          453 -20 hstemhm
          318 103 116 102 hintmask 01111000
          -13 callsubr
          16 14 1 0 vhcurveto
          -40 callsubr
          219 -20 rmoveto
          -41 -194 -106 -84 -46 vhcurveto
          -15 -8 rlineto
          -7 -3 -2 -4 -3 vvcurveto
          hintmask 10111000
          -14 36 0 8 vhcurveto
          hintmask 01111000
          15 14 1 0 hvcurveto
          53 278 163 52 31 -57 143 -50 45 hvcurveto
          -2 2 rlineto
          7 -7 -9 10 -49 hhcurveto
          0 -23 0 -14 34 callgsubr
          92 -144 -61 vvcurveto
          endchar
        </CharString>
        <CharString name="guilsinglleft">
          -73 -26 -21 447 86 callsubr
          68 103 hintmask 10110000
          171 -7 callsubr
          vhcurveto
          hintmask 11010000
          -15 -12 -1 0 hvcurveto
          -36 callsubr
          endchar
        </CharString>
        <CharString name="guilsinglright">
          -14 -31 43 callgsubr
          446 -20 hstemhm
          318 103 hintmask 10110000
          -13 callsubr
          vhcurveto
          hintmask 01110000
          16 14 1 0 hvcurveto
          -40 callsubr
          endchar
        </CharString>
        <CharString name="h">
          21 -58 -21 334 115 385 126 hstemhm
          230 159 0 120 67 111 hintmask 11101100
          509 323 rmoveto
          30 -15 17 -28 -78 -130 -125 0 vhcurveto
          -7 -9 -7 -3 -4 hhcurveto
          hintmask 11110100
          -6 -2 5 6 51 251 458 78 15 2 41 callgsubr
          -5 vvcurveto
          -8 10 -1 8 19 11 4 4 9 vhcurveto
          89 41 184 188 156 vvcurveto
          30 -8 25 -39 -218 -371 -808 -132 -82 vhcurveto
          -2 -3 -1 -2 -3 vvcurveto
          -6 7 -6 28 38 20 1 31 17 vhcurveto
          50 26 182 252 90 hhcurveto
          0 15 -1 -14 vvcurveto
          -46 -60 -116 -60 -87 vhcurveto
          0 -4 -6 -5 vvcurveto
          -4 3 -4 12 23 33 11 26 22 vhcurveto
          hintmask 11101100
          22 26 129 170 118 vvcurveto
          endchar
        </CharString>
        <CharString name="hungarumlaut">
          -47 439 112 hstem
          445 -18 callsubr
          134 hmoveto
          -106 callsubr
          endchar
        </CharString>
        <CharString name="hyphen">
          7 77 callgsubr
          382 -38 callsubr
        </CharString>
        <CharString name="i">
          35 callsubr
          56 0 104 hstemhm
          245 134 hintmask 10110000
          -93 callgsubr
          307 544 32 callgsubr
          hintmask 11010000
          42 callsubr
        </CharString>
        <CharString name="iacute">
          -241 -30 -21 602 -20 hstem
          -53 callgsubr
          311 555 -104 callsubr
        </CharString>
        <CharString name="icircumflex">
          35 callsubr
          178 -106 9 callgsubr
          hintmask 11000000
          -53 callgsubr
          239 525 rmoveto
          -102 callsubr
          hintmask 10010000
          -101 callgsubr
          hintmask 10100000
          -106 callgsubr
        </CharString>
        <CharString name="idieresis">
          35 callsubr
          76 0 84 hstemhm
          156 87 callsubr
          hintmask 10111000
          -93 callgsubr
          191 551 rmoveto
          -103 callgsubr
          vhcurveto
          hintmask 11011000
          -8 callgsubr
          hvcurveto
          endchar
        </CharString>
        <CharString name="igrave">
          -241 -30 -21 605 -20 hstem
          -93 callgsubr
          156 605 -97 callgsubr
        </CharString>
        <CharString name="j">
          -214 -638 131 931 104 hstem
          -475 125 590 134 vstem
          150 323 rmoveto
          -5 -80 -99 -183 0 vvcurveto
          -133 -66 -217 -434 -96 hhcurveto
          -13 -4 12 13 124 180 217 74 37 hvcurveto
          0 13 6 7 vvcurveto
          6 -8 1 -4 -124 -253 -272 -207 -3 vhcurveto
          -25 3 -50 37 258 340 782 200 138 19 callgsubr
          12 -27 6 -12 -64 -22 callgsubr
          224 170 rmoveto
          22 -19 13 -26 -33 -56 -24 -44 -23 18 -13 27 36 53 25 44 vhcurveto
          endchar
        </CharString>
        <CharString name="k">
          3 -109 -21 138 -21 312 87 369 127 hstem
          258 98 63 128 22 111 vstem
          358 133 rmoveto
          4 44 185 51 112 vvcurveto
          31 -20 15 -29 -108 -122 -105 0 vhcurveto
          -7 -8 -7 -3 -5 hhcurveto
          -8 -4 7 6 52 237 419 79 14 3 41 callgsubr
          -4 vvcurveto
          -9 10 -1 9 16 8 3 3 7 vhcurveto
          86 35 194 192 160 vvcurveto
          30 -9 26 -38 -189 -299 -557 -241 -118 vhcurveto
          -5 -11 -2 -11 -10 vvcurveto
          -35 25 -30 18 5 5 3 6 3 vhcurveto
          101 54 185 202 90 hhcurveto
          10 4 -8 -6 -67 -120 -58 -30 -10 hvcurveto
          -8 -2 -3 -10 -2 vvcurveto
          -79 50 -187 68 vhcurveto
          0 10 1 7 3 -30 101 107 vvcurveto
          15 1 15 1 14 vhcurveto
          endchar
        </CharString>
        <CharString name="l">
          -256 -139 -21 1012 -20 hstem
          25 66 vstem
          25 -53 callsubr
          endchar
        </CharString>
        <CharString name="less">
          107 140 -21 342 -20 hstem
          93 199 vstem
          642 461 rmoveto
          -26 callsubr
          33 callgsubr
          41 callsubr
        </CharString>
        <CharString name="lessequal">
          107 129 67 -47 -21 444 -20 hstemhm
          156 199 hintmask 10110000
          302 129 rmoveto
          27 40 -1 78 29 callgsubr
          -31 -34 0 -30 -105 -89 3 -89 hhcurveto
          -43 -23 -50 -10 -7 8 -1 5 hvcurveto
          30 90 1 119 hhcurveto
          hintmask 01110000
          403 443 rmoveto
          hintmask 10110000
          -26 callsubr
          hintmask 01110000
          33 callgsubr
          hintmask 10110000
          41 callsubr
        </CharString>
        <CharString name="logicalnot">
          91 172 -21 177 68 2 80 callgsubr
          642 383 rmoveto
          3 1 1 2 vvcurveto
          25 callsubr
          vhcurveto
          hintmask 11000000
          84 callgsubr
          hhcurveto
          hintmask 10100000
          -59 callsubr
          hintmask 11000000
          21 callsubr
          58 59 -1 -2 50 hvcurveto
          -26 -45 -36 -61 -34 callgsubr
          28 48 59 93 18 55 2 3 rcurveline
          endchar
        </CharString>
        <CharString name="lslash">
          -217 -139 -21 1012 -20 hstem
          50 66 vstem
          50 12 callgsubr
          111 60 153 80 153 vhcurveto
          114 44 rlineto
          -17 callsubr
          -33 -16 -31 -13 -21 -7 127 227 156 210 45 42 rrcurveto
          -6 callsubr
          -56 -23 -38 -25 hvcurveto
          -82 -126 -120 -187 -93 -172 -77 -30 rcurveline
          -17 callgsubr
          46 19 rlineto
          -57 -113 -39 -99 -62 vvcurveto
          endchar
        </CharString>
        <CharString name="m">
          255 -29 -21 298 149 -135 85 -85 116 hstemhm
          624 128 hintmask 10011000
          623 74 rmoveto
          51 84 78 116 61 vvcurveto
          43 -34 0 -15 -81 -134 -132 0 vhcurveto
          hintmask 10101000
          -6 -5 -6 -3 -5 hhcurveto
          -4 -4 3 5 87 callgsubr
          2 4 hvcurveto
          12 24 5 19 15 vvcurveto
          23 -13 11 -26 -90 -94 -92 0 vhcurveto
          -3 -4 -4 -1 -3 hhcurveto
          -8 -3 7 0 hvcurveto
          31 69 77 21 vvcurveto
          8 -17 2 -13 vhcurveto
          hintmask 11001000
          -29 -17 -10 0 hvcurveto
          -46 -17 -191 -358 -30 vvcurveto
          -4 2 -9 23 12 44 2 28 20 vhcurveto
          0 155 249 113 vhcurveto
          hintmask 10011000
          5 9 -5 -12 hvcurveto
          -52 -97 -111 -43 vvcurveto
          -12 22 -1 16 12 23 3 21 15 vhcurveto
          0 158 226 83 5 9 -2 -13 vhcurveto
          -39 -108 -121 -82 vvcurveto
          -10 9 -45 26 10 19 53 71 43 vhcurveto
          endchar
        </CharString>
        <CharString name="macron">
          -47 440 56 -39 43 callgsubr
          61 -20 hstemhm
          hintmask 00110000
          491 437 rmoveto
          25 14 44 10 6 -4 1 -4 76 callgsubr
          -14 -25 -2 -28 hhcurveto
          hintmask 01010000
          -53 -66 2 -37 hhcurveto
          -24 -14 -45 -9 -6 4 -2 3 76 callgsubr
          20 47 4 49 hhcurveto
          hintmask 00110000
          39 39 -1 -2 29 hvcurveto
          endchar
        </CharString>
        <CharString name="minus">
          91 328 61 callgsubr
          570 324 13 callgsubr
          hintmask 10000000
          -27 -47 -24 callsubr
          74 66 callgsubr
          endchar
        </CharString>
        <CharString name="mu">
          -3 -340 -21 362 -21 29 -21 427 -20 hstemhm
          157 134 hintmask 10111000
          -79 callsubr
          vhcurveto
          hintmask 11011000
          -10 -14 -1 -3 -10 hvcurveto
          -48 -12 -65 -100 -45 -96 rrcurveto
          -150 -257 -114 -187 -51 vvcurveto
          -35 36 -34 50 callgsubr
          hintmask 10111000
          29 83 55 121 74 133 rrcurveto
          -6 9 11 -2 9 hhcurveto
          59 45 26 84 87 hvcurveto
          -90 callgsubr
          endchar
        </CharString>
        <CharString name="multiply">
          29 155 -21 436 86 callsubr
          hintmask 11000000
          530 542 rmoveto
          hintmask 10100000
          -34 -30 -48 -40 -53 -44 -17 109 rcurveline
          32 -5 -10 1 -33 hhcurveto
          -6 hlineto
          -13 -14 -5 -18 hvcurveto
          12 -58 11 -58 9 -58 -100 -84 -104 -86 -51 -40 rrcurveto
          0 -16 -11 -8 vvcurveto
          -10 29 0 10 25 34 6 24 27 vhcurveto
          39 34 57 49 62 51 21 -130 rcurveline
          -27 4 26 -7 21 hhcurveto
          10 22 1 16 5 -2 4 0 hvcurveto
          -9 35 -14 80 -13 78 93 77 92 75 47 37 rrcurveto
          0 17 11 8 vvcurveto
          9 -29 1 -10 -26 -34 -6 -23 -27 vhcurveto
          endchar
        </CharString>
        <CharString name="n">
          32 -22 -21 319 113 hstem
          405 136 vstem
          -48 callsubr
          44 callgsubr
          12 37 2 28 20 vhcurveto
          -25 callgsubr
          endchar
        </CharString>
        <CharString name="nine">
          104 -13 62 -62 212 -189 -21 257 63 327 61 hstemhm
          -13 147 49 107 110 242 -109 109 hintmask 1001111100000000
          183 382 rmoveto
          -122 96 -14 28 28 32 5 0 vhcurveto
          3 7 6 1 5 hhcurveto
          11 4 -7 -8 -49 -113 -142 -95 -36 -22 20 28 hvcurveto
          55 19 29 6 vvcurveto
          hintmask 0101111100000000
          11 -11 1 -7 vhcurveto
          -5 hlineto
          -40 -103 -164 -33 hvcurveto
          hintmask 0011111100000000
          -12 19 -1 10 vhcurveto
          35 24 13 7 hhcurveto
          5 4 -2 0 hvcurveto
          hintmask 1001111010000000
          -13 23 43 0 7 hhcurveto
          298 180 384 176 83 -54 67 -95 -171 -139 -171 -144 hvcurveto
          283 254 rmoveto
          64 3 -58 -28 -79 -32 -67 -26 -44 hvcurveto
          -20 -12 -28 -31 -66 hhcurveto
          -59 -20 53 42 129 101 103 75 hvcurveto
          endchar
        </CharString>
        <CharString name="ntilde">
          32 -22 -21 319 113 39 26 callgsubr
          405 136 hintmask 11101000
          -48 callsubr
          hintmask 11011000
          44 callgsubr
          vhcurveto
          hintmask 11101000
          12 37 2 28 20 hvcurveto
          -25 callgsubr
          76 471 -66 callgsubr
          endchar
        </CharString>
        <CharString name="numbersign">
          111 135 167 -74 74 87 72 -72 166 hstemhm
          hintmask 10100000
          542 521 rmoveto
          -35 -60 rlineto
          -35 -38 1 -35 hhcurveto
          16 27 14 23 6 callgsubr
          -10 -16 -11 -20 -12 -21 rrcurveto
          -64 hlineto
          30 callsubr
          -11 -8 9 -1 6 hvcurveto
          5 hlineto
          1 19 27 1 30 hhcurveto
          -16 -30 -18 -30 -16 -29 rrcurveto
          -67 hlineto
          30 callsubr
          -16 callgsubr
          6 hvcurveto
          hintmask 01100000
          4 3 1 0 hvcurveto
          1 19 28 1 30 hhcurveto
          -16 -28 -15 -24 -11 -17 rrcurveto
          0 -6 -8 -7 vvcurveto
          hintmask 10100000
          -11 24 0 4 22 31 7 27 16 vhcurveto
          35 61 rlineto
          36 37 0 -1 36 hvcurveto
          -17 -27 -14 -25 -11 -16 rrcurveto
          0 -6 -8 -7 vvcurveto
          -11 23 0 5 22 31 7 27 16 vhcurveto
          hintmask 01100000
          34 59 rlineto
          63 hlineto
          -10 callsubr
          58 callsubr
          -1 -19 -26 -1 -30 hhcurveto
          51 89 rlineto
          65 hlineto
          76 callsubr
          11 7 -7 2 -6 58 callsubr
          -1 -19 -27 -1 -31 hhcurveto
          16 27 15 24 6 callgsubr
          -74 -131 rmoveto
          -51 -90 rlineto
          -110 hlineto
          51 91 rlineto
          36 37 0 -1 37 hvcurveto
          endchar
        </CharString>
        <CharString name="o">
          -21 19 callsubr
          23 callgsubr
          hintmask 11101000
          151 -88 callsubr
          vhcurveto
          hintmask 11110000
          -55 callsubr
          vhcurveto
          -70 callgsubr
          endchar
        </CharString>
        <CharString name="oacute">
          -31 19 callsubr
          -54 94 112 64 callgsubr
          hintmask 11011100
          -37 callsubr
          hintmask 10111010
          -71 callsubr
          146 345 -104 callsubr
        </CharString>
        <CharString name="ocircumflex">
          -31 19 callsubr
          41 106 1 64 callgsubr
          hintmask 11101100
          -37 callsubr
          hintmask 11011010
          -71 callsubr
          76 315 -107 callsubr
          hintmask 11101010
          -106 callgsubr
        </CharString>
        <CharString name="odieresis">
          -21 19 callsubr
          45 84 hstemhm
          44 100 103 107 6 149 -77 21 -21 107 hintmask 11111001
          161 -77 callsubr
          hintmask 11111100
          -70 callgsubr
          35 341 rmoveto
          -103 callsubr
          vhcurveto
          hintmask 11111010
          -5 callgsubr
          -8 callgsubr
          vhcurveto
          endchar
        </CharString>
        <CharString name="oe">
          176 -72 107 -107 225 -184 66 286 63 -39 54 hstemhm
          34 100 175 98 -57 80 -80 93 152 97 hintmask 0101010101000000
          419 45 callsubr
          hintmask 1000111001000000
          -55 callgsubr
          68 callgsubr
          -73 -62 -29 -41 -49 vhcurveto
          hintmask 1001010011000000
          1 4 1 6 8 -68 callgsubr
          63 53 24 31 42 vhcurveto
          -54 8 32 -42 70 hhcurveto
          hintmask 1001011001000000
          -110 231 rmoveto
          -39 -42 -85 -77 66 callsubr
          -55 callsubr
          vhcurveto
          -32 callgsubr
          vhcurveto
          hintmask 0010110011000000
          2 2 1 2 4 hvcurveto
          -20 callgsubr
          286 131 rmoveto
          hintmask 1001011001000000
          10 callsubr
        </CharString>
        <CharString name="ogonek">
          -92 -139 150 hstemhm
          133 44 -44 99 hintmask 10100000
          228 -21 rmoveto
          hintmask 11000000
          2 3 2 7 7 vvcurveto
          8 -2 7 -7 vhcurveto
          -45 -1 -45 -50 -41 vvcurveto
          -40 35 -18 28 18 14 8 14 4 -1 4 -3 4 vhcurveto
          -33 1 -14 14 17 vvcurveto
          20 20 23 31 9 vhcurveto
          endchar
        </CharString>
        <CharString name="ograve">
          -31 19 callsubr
          155 64 callgsubr
          hintmask 11110100
          151 -77 callsubr
          -70 callgsubr
          31 395 -81 callgsubr
          hintmask 11111000
          7 hlineto
          10 0 3 3 hvcurveto
          30 callgsubr
        </CharString>
        <CharString name="one">
          -186 16 -21 695 -20 hstem
          167 67 rmoveto
          18 82 270 446 42 54 rrcurveto
          0 13 13 12 vvcurveto
          8 -7 8 -23 -79 -180 -77 -46 vhcurveto
          -19 74 23 -46 vvcurveto
          -9 -3 -11 -6 -14 vhcurveto
          -129 -244 -120 -187 -40 -30 rrcurveto
          0 -5 -5 -6 vvcurveto
          -10 14 -14 75 62 20 11 20 vhcurveto
          7 -1 1 4 vvcurveto
          4 1 7 4 18 vhcurveto
          endchar
        </CharString>
        <CharString name="onehalf">
          280 0 38 -22 -21 23 -21 375 45 -45 249 -1 -20 hstemhm
          718 89 hintmask 01001010
          500 56 rmoveto
          -2 callsubr
          hintmask 01010110
          -24 -2 -64 -106 -1 -8 rrcurveto
          -15 callgsubr
          6 callsubr
          -12 callgsubr
          -351 -40 -39 callgsubr
          -35 callgsubr
          49 231 rmoveto
          hintmask 00101010
          -7 callgsubr
          hintmask 10001010
          81 callgsubr
          hintmask 00101010
          -5 -1 -7 -4 -8 vhcurveto
          hintmask 10001010
          -63 callsubr
          endchar
        </CharString>
        <CharString name="onequarter">
          250 -5 152 -43 43 473 86 callsubr
          369 95 hintmask 10011000
          765 -79 callgsubr
          -616 -387 -39 callgsubr
          13 callsubr
          hintmask 10101000
          -52 callsubr
          49 231 rmoveto
          -12 callsubr
          hintmask 01011000
          11 callsubr
          81 callgsubr
          hintmask 10011000
          -37 callgsubr
          442 66 -24 callgsubr
        </CharString>
        <CharString name="onesuperior">
          -201 225 -21 417 -20 hstem
          198 247 rmoveto
          -7 callgsubr
          81 callgsubr
          -37 callgsubr
          endchar
        </CharString>
        <CharString name="ordfeminine">
          70 callgsubr
          80 61 0 111 43 42 0 46 hstemhm
          160 79 hintmask 00101101
          356 323 rmoveto
          hintmask 10001101
          30 48 89 126 69 vvcurveto
          59 -70 3 -20 -72 -35 -35 -15 -5 3 -2 4 vhcurveto
          hintmask 01001101
          6 7 4 3 hhcurveto
          2 5 20 5 14 hhcurveto
          hintmask 10001101
          50 5 -20 -9 hvcurveto
          hintmask 00101011
          -7 -2 -6 -9 vhcurveto
          -2 hlineto
          -180 -5 -42 -111 -44 vvcurveto
          -10 6 -45 44 vhcurveto
          53 23 34 16 3 17 -43 22 hhcurveto
          3 4 1 6 5 hvcurveto
          -57 -78 10 callgsubr
          75 callsubr
          hintmask 10010101
          56 callgsubr
          75 239 rmoveto
          -21 -59 -77 -54 -6 -16 0 24 21 29 66 78 8 20 -4 -9 vhcurveto
          endchar
        </CharString>
        <CharString name="ordmasculine">
          70 callgsubr
          133 226 0 40 hstemhm
          177 73 87 179 -109 68 -68 109 hintmask 0011011000000000
          262 329 rmoveto
          hintmask 1001011000000000
          137 67 153 0 hvcurveto
          29 13 21 32 21 vvcurveto
          11 -3 3 -2 vhcurveto
          -7 -3 -8 -16 hhcurveto
          hintmask 0101011000000000
          -16 -2 5 4 hvcurveto
          9 8 2 21 vvcurveto
          hintmask 1001011000000000
          40 -53 9 -14 vhcurveto
          hintmask 0011010010000000
          -129 -102 -130 -92 -86 71 -7 14 hvcurveto
          116 139 rmoveto
          -28 -31 -62 -56 -38 -3 39 3 62 64 122 67 5 21 -1 -23 -46 -32 11 -24 -24 vhcurveto
          -10 -12 -9 -21 -15 vvcurveto
          -3 1 -4 2 2 2 0 2 3 vhcurveto
          0 16 6 11 5 4 -1 -5 vhcurveto
          -79 -223 10 callgsubr
          hintmask 1000110100000000
          75 callsubr
          56 callgsubr
          endchar
        </CharString>
        <CharString name="oslash">
          -21 -50 -21 40 66 310 54 98 -20 hstem
          161 -31 -86 callgsubr
          12 11 4 1 27 hvcurveto
          141 144 rlineto
          14 callgsubr
          10 -18 0 -10 -12 -43 -1 -22 -20 vhcurveto
          -19 -21 -30 -31 -35 -36 rrcurveto
          10 -21 -23 3 -8 hhcurveto
          -26 callgsubr
          -29 6 -23 9 -17 hvcurveto
          -38 -37 -32 -33 -5 -4 rrcurveto
          -4 -5 -2 -4 -3 vvcurveto
          -8 12 -3 13 vhcurveto
          1 hlineto
          7 49 1 22 21 hvcurveto
          27 28 rlineto
          -10 23 21 -1 9 hhcurveto
          195 358 rmoveto
          -67 -69 -77 -78 -67 -68 rrcurveto
          89 12 81 144 86 hhcurveto
          4 20 -2 -16 8 hvcurveto
          -37 -168 rmoveto
          -39 -42 -85 -77 -13 -10 3 4 -7 vhcurveto
          119 122 rlineto
          2 6 6 1 6 hhcurveto
          7 5 -2 -6 hvcurveto
          endchar
        </CharString>
        <CharString name="otilde">
          -21 19 callsubr
          29 26 callgsubr
          44 100 136 173 -93 149 hintmask 11101010
          351 428 -66 callgsubr
          hintmask 11101100
          -190 -459 -95 callgsubr
          hintmask 11011100
          -2 callgsubr
          vhcurveto
          hintmask 11101100
          66 callsubr
          -55 callsubr
          hvcurveto
          -70 callgsubr
          endchar
        </CharString>
        <CharString name="p">
          -39 -572 -21 556 66 266 90 -90 164 hstemhm
          358 105 hintmask 11101000
          100 -37 rmoveto
          hintmask 11011000
          200 163 191 162 55 -31 14 -21 hvcurveto
          -72 -44 -49 -18 hhcurveto
          -6 -2 3 5 hvcurveto
          22 55 66 14 vvcurveto
          11 -15 2 -6 -71 -13 -42 0 vhcurveto
          -125 -239 -396 -623 -79 vvcurveto
          -35 36 -34 50 callgsubr
          41 116 192 364 43 55 rrcurveto
          9 7 41 0 4 hhcurveto
          258 301 rmoveto
          -79 -112 -156 -88 -26 -23 15 19 13 124 219 104 11 10 -12 -19 vhcurveto
          endchar
        </CharString>
        <CharString name="paragraph">
          -91 9 -21 27 -21 701 80 callgsubr
          614 676 rmoveto
          3 5 50 callsubr
          7 -9 1 -8 -64 -23 -18 0 vhcurveto
          7 -24 -84 3 -2 hhcurveto
          -273 -66 -175 -63 hvcurveto
          -114 123 21 -32 vvcurveto
          -36 -120 -181 -60 -93 vhcurveto
          0 -7 -9 -7 vvcurveto
          -5 4 -5 13 16 40 1 34 22 vhcurveto
          0 300 542 39 39 vhcurveto
          14 14 25 4 10 hhcurveto
          5 10 -2 -10 -3 -1 -2 -2 -4 hvcurveto
          0 -318 -547 -24 -36 vhcurveto
          0 -7 -8 -7 vvcurveto
          hintmask 01100000
          -5 4 -4 13 30 35 7 31 15 vhcurveto
          40 84 195 352 135 208 rrcurveto
          endchar
        </CharString>
        <CharString name="parenleft">
          -191 -37 -21 797 -20 hstem
          66 66 vstem
          240 346 rmoveto
          115 223 88 78 102 72 rrcurveto
          6 4 2 3 3 vvcurveto
          10 -36 0 0 -157 -294 -379 -303 -60 0 -55 51 vhcurveto
          0 16 1 13 12 -1 9 9 vvcurveto
          53 12 120 96 187 vhcurveto
          endchar
        </CharString>
        <CharString name="parenright">
          -180 -37 -21 797 -20 hstem
          327 67 vstem
          219 334 rmoveto
          -114 -222 -88 -78 -102 -72 rrcurveto
          -6 -4 80 callsubr
          36 0 0 157 294 385 297 60 0 55 -51 vhcurveto
          0 -17 -1 -13 -12 1 -10 -9 vvcurveto
          -53 -12 -120 -96 -187 vhcurveto
          endchar
        </CharString>
        <CharString name="percent">
          130 -1 callgsubr
          hintmask 0111111110000000
          -89 callsubr
          hvcurveto
          hintmask 1011111110000000
          -86 callsubr
          endchar
        </CharString>
        <CharString name="period">
          -250 -3 105 hstem
          14 135 vstem
          101 102 -34 callsubr
          endchar
        </CharString>
        <CharString name="periodcentered">
          -250 137 105 hstem
          70 135 vstem
          157 242 -34 callsubr
          endchar
        </CharString>
        <CharString name="perthousand">
          427 -1 callgsubr
          -12 66 170 64 hintmask 1011111101100000
          -89 callsubr
          -65 callsubr
          hintmask 0111111110100000
          -69 callgsubr
          284 -644 -44 callgsubr
          hvcurveto
          hintmask 1011111110100000
          -86 callsubr
          endchar
        </CharString>
        <CharString name="pi">
          -33 -12 -21 336 65 11 -20 hstemhm
          hintmask 11000000
          274 -16 rmoveto
          97 128 200 0 vhcurveto
          58 17 24 53 14 vvcurveto
          8 -4 2 -4 vhcurveto
          -10 -20 -7 -36 -55 -59 11 -74 hhcurveto
          -56 -51 -64 -7 -8 8 -1 0 hvcurveto
          7 16 4 12 hhcurveto
          7 5 -2 -4 -37 -168 -245 -30 -22 hvcurveto
          hintmask 10100000
          -3 -4 16 callgsubr
          -5 6 -4 17 26 49 7 39 24 vhcurveto
          hintmask 11000000
          0 79 186 68 68 vhcurveto
          15 15 20 6 23 hhcurveto
          13 11 -4 -13 hvcurveto
          -47 -126 -148 -57 vvcurveto
          -18 36 -41 38 vhcurveto
          0 8 2 13 vvcurveto
          endchar
        </CharString>
        <CharString name="plus">
          91 172 -21 173 71 -71 247 hstemhm
          hintmask 11000000
          411 325 rmoveto
          30 44 -27 callgsubr
          -6 -35 -4 -65 -28 -23 1 -22 hhcurveto
          16 29 37 65 35 55 -23 callsubr
          -44 -75 -21 -39 -14 -26 rrcurveto
          -43 -55 1 -63 hhcurveto
          30 callsubr
          -10 hvcurveto
          hintmask 10100000
          -8 8 -2 6 vhcurveto
          37 callgsubr
          54 hlineto
          -26 -45 -36 -62 -34 callgsubr
          31 53 28 50 20 37 rrcurveto
          2 hlineto
          endchar
        </CharString>
        <CharString name="plusminus">
          119 152 70 -54 43 callgsubr
          229 69 -69 194 hstemhm
          hintmask 10010000
          494 148 -19 callsubr
          hintmask 00101000
          55 callsubr
          hintmask 10001000
          106 227 rmoveto
          -3 callsubr
          -6 -35 -4 -65 hhcurveto
          hintmask 01001000
          -28 -23 1 -22 hhcurveto
          16 29 7 14 35 55 rrcurveto
          hintmask 10001000
          0 7 8 7 vvcurveto
          hintmask 00101000
          -11 callsubr
          -44 -75 9 12 -14 -26 rrcurveto
          -43 -55 1 -63 29 callsubr
          54 hlineto
          -26 -45 -6 -10 -34 callgsubr
          31 53 -2 -2 20 37 rrcurveto
          endchar
        </CharString>
        <CharString name="q">
          -24 -620 -21 634 110 -25 25 206 96 -65 65 hstemhm
          hintmask 11001000
          379 -67 rmoveto
          24 -29 4 -21 vhcurveto
          -13 -8 -2 -9 hhcurveto
          -11 -3 5 6 6 4 7 0 hvcurveto
          66 140 111 134 15 vvcurveto
          14 -35 3 -14 -38 -9 -14 0 vhcurveto
          -131 -83 -79 -41 -35 hhcurveto
          -16 -5 11 14 90 102 122 113 hvcurveto
          hintmask 11010000
          125 -7 -31 17 hhcurveto
          14 2 22 6 52 -79 16 -34 -242 -131 -225 -126 -29 9 -32 32 hvcurveto
          hintmask 10110000
          87 62 85 26 hhcurveto
          3 5 -1 -7 -2 0 -2 -1 -2 hvcurveto
          0 -57 -119 -28 -15 vhcurveto
          -56 -32 -64 -52 -22 vvcurveto
          -3 1 -2 3 -2 vhcurveto
          0 29 -17 -29 -34 -188 -247 -63 vvcurveto
          -35 37 -33 23 8 6 3 9 3 vhcurveto
          40 115 143 258 23 36 rrcurveto
          81 127 120 -2 28 vvcurveto
          endchar
        </CharString>
        <CharString name="question">
          -58 3 104 478 66 1 -20 hstemhm
          18 135 291 127 hintmask 11011000
          571 556 rmoveto
          79 -71 16 -42 -80 -19 -16 0 vhcurveto
          -1 -4 -4 -1 -3 hhcurveto
          hintmask 10111000
          -12 -22 19 -20 hhcurveto
          -31 -85 -141 -6 -5 0 -5 17 10 13 1 21 23 hvcurveto
          hintmask 11011000
          0 66 68 71 24 42 -8 -36 -153 -254 -2 -79 -200 vhcurveto
          -13 8 -3 23 19 33 3 20 8 vhcurveto
          72 179 297 -18 202 vvcurveto
          -418 -484 rmoveto
          -44 -56 -25 -34 -26 -18 13 22 -1 vhcurveto
          1 vlineto
          43 57 25 32 26 19 -13 -22 1 vhcurveto
          endchar
        </CharString>
        <CharString name="questiondown">
          -8 -197 67 -48 48 -47 -21 545 105 hstemhm
          -36 126 292 135 hintmask 01011100
          382 382 rmoveto
          -21 1 20 -14 26 hhcurveto
          34 54 26 44 21 -20 14 -26 -33 -56 -26 -44 hvcurveto
          -418 -484 rmoveto
          -79 71 -16 42 vhcurveto
          94 -3 19 18 14 7 -20 34 hhcurveto
          hintmask 00111100
          31 85 141 6 hvcurveto
          hintmask 01011100
          5 -1 6 -16 vhcurveto
          hintmask 10011100
          -10 -13 -2 -21 -23 hvcurveto
          0 -66 -67 -71 -24 -43 7 37 152 255 2 79 200 vhcurveto
          17 -1 -18 0 -12 hhcurveto
          -19 -33 -3 -21 -8 hvcurveto
          -72 -179 -297 18 -202 vvcurveto
          endchar
        </CharString>
        <CharString name="quotedbl">
          -139 -51 callsubr
          147 hmoveto
          -70 callsubr
          endchar
        </CharString>
        <CharString name="quotedblbase">
          -92 -85 187 hstem
          192 64 -73 callsubr
        </CharString>
        <CharString name="quotedblleft">
          -153 -57 callsubr
          140 hmoveto
          -74 callgsubr
          endchar
        </CharString>
        <CharString name="quotedblright">
          -99 511 187 hstem
          530 660 -73 callsubr
        </CharString>
        <CharString name="quoteleft">
          -293 -57 callsubr
          endchar
        </CharString>
        <CharString name="quoteright">
          -243 532 -21 187 -20 hstem
          386 660 rmoveto
          -84 callgsubr
        </CharString>
        <CharString name="quotesinglbase">
          -236 -64 -21 187 -20 hstem
          48 64 rmoveto
          -84 callgsubr
        </CharString>
        <CharString name="quotesingle">
          -289 -51 callsubr
          endchar
        </CharString>
        <CharString name="r">
          -46 -11 -21 272 139 15 80 callgsubr
          368 134 rmoveto
          54 118 79 108 0 vvcurveto
          8 11 2 5 0 vvcurveto
          15 -26 3 -24 -52 -16 -39 -3 -6 vhcurveto
          -55 -30 -37 -26 -16 -12 rrcurveto
          -4 -6 -7 -8 -9 hhcurveto
          -7 0 7 0 hvcurveto
          21 46 46 21 vvcurveto
          hintmask 11000000
          8 -13 4 -13 -29 -22 -11 0 vhcurveto
          -46 -17 -183 -340 -31 vvcurveto
          -4 4 -8 23 12 41 0 30 17 vhcurveto
          79 44 107 163 84 hhcurveto
          3 7 -1 -12 hvcurveto
          0 -12 -21 -20 vvcurveto
          -21 11 -38 28 3 3 1 6 3 vhcurveto
          endchar
        </CharString>
        <CharString name="registered">
          -107 159 31 -31 74 176 58 -27 27 hstemhm
          87 46 -46 168 39 27 37 74 -45 45 hintmask 0110011100000000
          199 159 -47 callgsubr
          -106 -195 rmoveto
          5 16 51 98 20 25 rrcurveto
          3 2 7 4 7 hhcurveto
          14 10 -4 -14 -19 -21 -18 -30 -8 -5 -14 -6 -1 0 -1 3 hvcurveto
          3 hlineto
          6 6 -1 -11 hvcurveto
          -13 -20 -31 -15 vvcurveto
          -4 4 -4 16 7 12 1 3 vhcurveto
          7 vlineto
          22 16 25 11 10 -18 5 5 vvcurveto
          hintmask 1001101010000000
          7 20 -3 18 10 vhcurveto
          14 7 14 15 15 vvcurveto
          32 -35 2 -34 -32 -11 -4 -3 vhcurveto
          -2 vlineto
          -4 -1 -6 -5 -11 vhcurveto
          -14 -34 -65 -102 -6 vvcurveto
          -1 vlineto
          -1 0 -2 7 11 23 3 9 3 vhcurveto
          endchar
        </CharString>
        <CharString name="ring">
          -47 429 32 50 33 hstem
          335 147 vstem
          440 495 -42 callgsubr
        </CharString>
        <CharString name="s">
          71 callgsubr
          hstemhm
          94 102 -6 106 -100 104 hintmask 11001000
          296 104 rmoveto
          hintmask 10100100
          9 callsubr
          hintmask 11010000
          -4 callgsubr
          hintmask 10110000
          64 callsubr
          hintmask 11010000
          38 callsubr
          hintmask 11001000
          -16 callsubr
          endchar
        </CharString>
        <CharString name="scaron">
          71 callgsubr
          24 105 7 -20 hstemhm
          94 102 -6 106 -100 104 hintmask 11010010
          296 104 rmoveto
          hintmask 10110001
          9 callsubr
          hintmask 11010100
          -4 callgsubr
          hintmask 10110100
          64 callsubr
          hintmask 11010100
          38 callsubr
          hintmask 11001010
          -16 callsubr
          24 410 -98 callsubr
          hintmask 11010100
          -42 callsubr
        </CharString>
        <CharString name="section">
          68 -4 41 398 246 -42 42 hstemhm
          128 119 8 96 -96 129 -51 132 16 121 hintmask 11010101
          hintmask 11011001
          107 -4 rmoveto
          124 153 72 67 hvcurveto
          33 -33 9 25 37 251 19 122 95 -137 11 70 vvcurveto
          35 76 48 111 vhcurveto
          10 hlineto
          14 0 7 4 hvcurveto
          hintmask 10110011
          29 -67 2 -13 -126 -137 -53 -67 vhcurveto
          hintmask 11011001
          -44 48 -6 -19 vvcurveto
          -6 -6 -5 -12 -4 vhcurveto
          -12 -3 rlineto
          -69 -19 -154 -43 -103 -62 127 -30 -66 vvcurveto
          -58 -98 -56 -106 -8 -10 -1 -11 -14 28 -15 46 vhcurveto
          374 380 rmoveto
          -51 -84 -56 -82 -46 -22 43 15 56 110 52 54 29 41 -22 -37 vhcurveto
          endchar
        </CharString>
        <CharString name="semicolon">
          -209 -71 173 -83 -21 260 105 hstemhm
          29 134 15 134 hintmask 10111000
          46 callsubr
          5 callgsubr
          69 callsubr
          101 298 rmoveto
          hintmask 01111000
          -48 15 callgsubr
          25 hvcurveto
          hintmask 10111000
          57 callsubr
        </CharString>
        <CharString name="seven">
          -148 14 -21 635 65 -65 80 hstemhm
          471 172 hintmask 11010000
          65 -7 rmoveto
          86 -4 24 0 hvcurveto
          60 282 436 257 103 vvcurveto
          25 -58 9 -90 -70 -40 -6 0 vhcurveto
          14 -16 -24 7 -27 hhcurveto
          -39 -3 -109 -181 -1 -12 rrcurveto
          hintmask 10110000
          -7 3 -4 11 9 14 4 14 15 vhcurveto
          0 99 109 107 7 37 -6 -20 vhcurveto
          -69 -447 -344 -178 vvcurveto
          0 3 -18 38 vhcurveto
          endchar
        </CharString>
        <CharString name="six">
          57 -14 61 335 63 189 62 hstemhm
          84 111 -111 241 112 107 47 147 hintmask 11110110
          260 47 rmoveto
          -64 -1 73 20 63 30 84 27 44 hvcurveto
          20 12 34 31 60 hhcurveto
          59 20 -53 -41 -130 -103 -111 -74 hvcurveto
          284 262 rmoveto
          122 -96 14 -28 vhcurveto
          -42 -30 -10 -9 hhcurveto
          hintmask 11101110
          -11 -3 6 8 46 127 139 82 36 21 -20 -28 hvcurveto
          -55 -18 -30 -5 vvcurveto
          -9 8 -3 12 7 6 3 2 4 vhcurveto
          45 28 83 134 30 vvcurveto
          12 -18 1 -10 vhcurveto
          -32 -28 -13 -6 hhcurveto
          -5 -4 2 0 hvcurveto
          13 -23 -44 0 -6 hhcurveto
          -278 -200 -384 -176 -83 53 -67 96 171 140 179 144 hvcurveto
          endchar
        </CharString>
        <CharString name="slash">
          -67 -31 -21 781 -20 hstem
          67 -26 rmoveto
          230 248 243 237 238 245 rrcurveto
          5 6 2 4 callgsubr
          12 -19 0 -11 -12 -49 -2 -24 -23 vhcurveto
          -112 -119 -582 -596 -18 -14 rrcurveto
          -5 -6 -2 -4 -4 vvcurveto
          -12 21 0 8 7 55 1 25 24 vhcurveto
          endchar
        </CharString>
        <CharString name="space">
          -267 endchar
        </CharString>
        <CharString name="sterling">
          111 -13 -21 34 56 271 58 297 -20 hstem
          374 562 rmoveto
          -18 -40 -35 -65 -41 -73 rrcurveto
          1 -30 -32 0 -33 hhcurveto
          -38 -18 -42 -9 -6 7 -1 5 hvcurveto
          5 hlineto
          2 27 38 0 37 hhcurveto
          -92 -159 -104 -172 -16 65 callsubr
          26 16 40 1 28 32 vhcurveto
          0 6 8 14 vhcurveto
          15 78 -3 46 hhcurveto
          51 53 1 1 32 hvcurveto
          17 1 20 1 12 15 rrcurveto
          30 37 56 102 32 vvcurveto
          14 -13 2 -10 -15 -1 -9 0 vhcurveto
          -133 -84 -123 -8 -30 hhcurveto
          -30 -39 5 31 60 70 111 18 34 hvcurveto
          5 10 6 10 5 11 rrcurveto
          12 hlineto
          19 23 -1 70 hhcurveto
          39 18 42 8 7 -7 1 -5 hvcurveto
          -5 hlineto
          -2 -35 -35 -1 -25 hhcurveto
          -39 hlineto
          57 106 68 119 28 40 rrcurveto
          0 8 8 8 vvcurveto
          9 -10 10 -42 -89 -13 -16 -9 vhcurveto
          -8 vlineto
          -15 -1 -25 -20 -47 vhcurveto
          endchar
        </CharString>
        <CharString name="t">
          -237 -74 -21 672 62 -62 247 hstemhm
          hintmask 11000000
          452 790 rmoveto
          hintmask 10100000
          -117 -162 -73 25 -35 -40 rrcurveto
          -8 -9 -5 -10 -8 vvcurveto
          -7 4 -5 9 vhcurveto
          33 hlineto
          37 17 -2 -18 hvcurveto
          -41 -327 -464 -66 vvcurveto
          -36 49 -42 25 7 5 3 7 2 vhcurveto
          45 176 249 385 25 35 rrcurveto
          42 29 -3 24 89 hhcurveto
          81 14 52 7 4 -3 1 -7 hvcurveto
          -9 -17 -2 -23 hhcurveto
          -34 -12 1 0 hvcurveto
          -26 -4 10 6 hvcurveto
          31 90 105 19 vvcurveto
          11 -15 2 -6 -24 -38 -1 -33 -24 vhcurveto
          endchar
        </CharString>
        <CharString name="thorn">
          -41 -559 -21 1442 -20 hstem
          270 351 rmoveto
          142 274 175 195 48 callgsubr
          -4 -8 -101 -168 -101 -184 rrcurveto
          -130 -235 -408 -656 -79 vvcurveto
          -35 36 -33 50 callgsubr
          41 115 191 363 42 54 rrcurveto
          9 8 36 0 8 hhcurveto
          1 hlineto
          198 163 190 162 55 -31 13 -21 hvcurveto
          -72 -43 -49 -19 hhcurveto
          -5 -2 2 5 hvcurveto
          88 -78 rmoveto
          -79 -111 -155 -87 -27 -23 15 19 13 124 218 104 10 10 -12 -19 vhcurveto
          endchar
        </CharString>
        <CharString name="three">
          62 -7 58 314 63 201 64 5 -20 hstemhm
          21 137 111 202 -44 114 41 115 hintmask 11101011
          hintmask 11101101
          427 283 rmoveto
          -120 -116 -112 -88 -49 -16 32 38 49 25 60 12 24 vhcurveto
          1 1 0 1 1 vvcurveto
          hintmask 11011101
          8 -15 0 0 -64 -94 -200 -25 -2 vhcurveto
          -2 vlineto
          -22 19 -23 178 146 177 117 162 vhcurveto
          98 -70 -10 26 vvcurveto
          hintmask 11101101
          1 vlineto
          2 29 224 15 166 vvcurveto
          39 -33 57 -72 -84 -17 -16 0 vhcurveto
          13 -15 -30 8 -21 hhcurveto
          hintmask 11101011
          -7 hlineto
          -36 -3 -83 -143 -1 -11 rrcurveto
          -2 vlineto
          -8 7 -1 9 7 16 0 16 12 vhcurveto
          0 66 83 107 31 29 -14 -40 vhcurveto
          -54 -4 -75 -93 -183 hhcurveto
          -21 -30 -28 -25 -4 1 -6 11 50 96 -11 -71 hvcurveto
          endchar
        </CharString>
        <CharString name="threequarters">
          374 -5 152 -43 43 59 22 callsubr
          -94 71 0 95 hintmask 1011010001000000
          889 -79 callgsubr
          -538 -23 17 callsubr
          52 callgsubr
          hintmask 1011001001000000
          53 callsubr
          48 callsubr
          hintmask 1011000100000000
          24 -23 38 -43 -51 -10 -10 0 vhcurveto
          8 -9 -21 5 -17 hhcurveto
          hintmask 1010110010000000
          75 callgsubr
          hintmask 0111010010000000
          -41 callsubr
          -78 -364 -39 callgsubr
          hintmask 1011010010000000
          -35 callgsubr
          491 297 -24 callgsubr
        </CharString>
        <CharString name="threesuperior">
          -80 206 22 callsubr
          hintmask 11010000
          351 380 17 callsubr
          hintmask 11001000
          52 callgsubr
          53 callsubr
          hintmask 11000100
          48 callsubr
          24 -23 38 -43 vhcurveto
          hintmask 10110000
          -51 -10 -10 0 hvcurveto
          8 -9 -21 5 -17 hhcurveto
          hintmask 11010000
          75 callgsubr
          -41 callsubr
          endchar
        </CharString>
        <CharString name="tilde">
          32 428 26 callgsubr
          hintmask 10000000
          hintmask 01000000
          361 428 -40 callgsubr
        </CharString>
        <CharString name="trademark">
          31 178 212 -198 -21 152 67 6 -20 hstemhm
          hintmask 01010000
          348 215 rmoveto
          hintmask 10000000
          34 20 64 74 16 hhcurveto
          3 1 -1 -2 -3 -4 -7 -3 -4 hvcurveto
          -15 -23 -46 -70 -24 vvcurveto
          -7 12 -4 23 6 2 5 0 vhcurveto
          42 108 161 2 vvcurveto
          1 1 0 1 0 vvcurveto
          4 -4 2 -10 -29 -13 -2 -2 -2 vhcurveto
          -26 -33 -52 -76 -17 hhcurveto
          -2 -1 2 3 hvcurveto
          19 24 63 10 vvcurveto
          9 -24 0 0 -34 -15 -10 -2 vhcurveto
          -4 vlineto
          -5 -1 -8 -6 -13 vhcurveto
          -44 -88 -58 -81 -8 vvcurveto
          -1 vlineto
          -5 14 0 3 3 6 1 3 5 vhcurveto
          13 9 12 43 46 75 rrcurveto
          hintmask 01010000
          0 13 25 8 2 1 -2 -3 vhcurveto
          hintmask 01100000
          -17 -30 -59 -26 vvcurveto
          -10 13 -3 10 4 7 2 6 3 vhcurveto
          -33 176 rmoveto
          2 -1 3 -4 -15 -15 -6 0 vhcurveto
          -78 hlineto
          -8 6 -16 0 0 vvcurveto
          -10 -34 -65 0 hvcurveto
          -1 -1 0 -1 -1 vvcurveto
          -3 3 0 0 12 3 6 0 vhcurveto
          33 30 15 5 5 hhcurveto
          4 1 -2 -2 -5 callsubr
          -1 -2 hvcurveto
          -46 -89 -58 -80 -8 vvcurveto
          -1 vlineto
          -5 19 0 5 6 8 2 4 6 vhcurveto
          13 11 13 39 26 45 50 84 rcurveline
          hintmask 10000000
          0 6 11 9 5 3 -6 -10 -6 -1 -9 -3 -10 vhcurveto
          -3 vlineto
          hintmask 01010000
          -3 2 -1 4 2 5 1 6 4 vhcurveto
          9 12 24 41 9 vvcurveto
          endchar
        </CharString>
        <CharString name="two">
          90 1 58 -41 -21 630 70 7 -20 hstemhm
          581 142 hintmask 10101000
          211 89 rmoveto
          hintmask 10011000
          154 512 195 173 vvcurveto
          78 -106 8 0 -86 -40 -16 0 vhcurveto
          15 -19 -26 8 -30 hhcurveto
          hintmask 01101000
          -39 -3 -107 -177 -1 -12 rrcurveto
          hintmask 10101000
          -1 vlineto
          -6 8 -4 10 9 6 0 18 24 vhcurveto
          0 88 108 119 7 41 -3 -37 vhcurveto
          hintmask 01101000
          -120 -500 -194 -73 -255 vhcurveto
          -1 -3 0 -2 -2 vvcurveto
          -11 11 -3 31 vhcurveto
          35 59 4 96 76 -8 -4 100 hhcurveto
          hintmask 10101000
          41 107 194 26 3 hvcurveto
          6 -4 4 -11 -9 -13 -1 -16 -16 vhcurveto
          0 -110 -151 -128 -20 -36 4 26 vhcurveto
          endchar
        </CharString>
        <CharString name="twosuperior">
          -80 213 38 -20 -21 375 45 5 -20 hstemhm
          430 89 hintmask 10101000
          212 269 rmoveto
          hintmask 10011000
          -2 callsubr
          hintmask 01101000
          -24 -2 -64 -106 -1 -8 rrcurveto
          hintmask 10101000
          -15 callgsubr
          hintmask 01101000
          6 callsubr
          hintmask 10101000
          -12 callgsubr
          endchar
        </CharString>
        <CharString name="u">
          15 callsubr
          427 82 callsubr
          0 134 hintmask 10110000
          -69 callsubr
          hintmask 01101000
          -88 callgsubr
          endchar
        </CharString>
        <CharString name="uacute">
          15 callsubr
          563 82 callsubr
          hintmask 01110000
          -59 callgsubr
          hintmask 10110000
          -52 callgsubr
          91 173 -104 callsubr
        </CharString>
        <CharString name="ucircumflex">
          15 callsubr
          452 106 1 82 callsubr
          hintmask 01101000
          -59 callgsubr
          hintmask 10011000
          -52 callgsubr
          -3 143 -107 callsubr
          hintmask 10101000
          -106 callgsubr
        </CharString>
        <CharString name="udieresis">
          15 callsubr
          456 84 84 callsubr
          124 87 callsubr
          hintmask 10111100
          -85 callgsubr
          hintmask 01111100
          -38 169 -101 callsubr
        </CharString>
        <CharString name="ugrave">
          15 callsubr
          566 82 callsubr
          hintmask 10110000
          -85 callgsubr
          -54 223 -92 callsubr
          hintmask 01110000
          30 callgsubr
        </CharString>
        <CharString name="underscore">
          91 -52 49 -33 43 callgsubr
          55 -20 hstemhm
          hintmask 00110000
          440 -56 rmoveto
          47 11 34 14 callsubr
          hintmask 10000000
          84 callgsubr
          hhcurveto
          hintmask 01010000
          -100 -124 2 -70 hhcurveto
          -47 -11 -36 -16 callgsubr
          5 76 callgsubr
          21 callsubr
          hintmask 00110000
          73 74 66 callgsubr
          endchar
        </CharString>
        <CharString name="v">
          -55 -44 117 346 -20 hstemhm
          42 118 0 190 hintmask 11010000
          429 250 rmoveto
          57 callgsubr
          63 24 12 74 0 vvcurveto
          9 -5 1 -3 vhcurveto
          -10 -20 -23 -61 31 callgsubr
          -63 -107 -159 -63 -14 -6 15 22 69 54 144 15 28 19 callgsubr
          8 -12 0 -5 -57 -13 -32 1 2 vhcurveto
          hintmask 11100000
          0 -104 -196 -137 vvcurveto
          -14 6 -31 31 92 201 183 111 57 vhcurveto
          endchar
        </CharString>
        <CharString name="w">
          165 -48 157 -133 100 333 -20 hstemhm
          46 131 112 100 0 173 hintmask 01110100
          336 -24 rmoveto
          86 168 166 98 51 hvcurveto
          57 callgsubr
          71 30 4 68 0 vvcurveto
          5 -1 5 -8 vhcurveto
          -9 -21 -23 -60 31 callgsubr
          -57 -90 -152 -60 -17 -6 16 23 58 39 104 14 26 19 callgsubr
          7 -12 1 -5 -57 -20 -32 1 1 vhcurveto
          hintmask 10111000
          0 -105 -177 -54 -11 -4 11 18 66 58 156 16 29 19 callgsubr
          8 -12 0 -5 -57 -17 -32 1 1 vhcurveto
          0 -117 -221 -154 vvcurveto
          -14 6 -31 31 vhcurveto
          75 92 151 32 hhcurveto
          5 2 -7 -10 hvcurveto
          -12 -2 -17 -16 vvcurveto
          hintmask 01111000
          -32 7 -33 42 vhcurveto
          endchar
        </CharString>
        <CharString name="x">
          -41 -18 -21 452 -20 hstemhm
          171 125 -98 98 -83 83 hintmask 11100000
          572 399 rmoveto
          13 -32 1 -8 -90 -18 -31 -1 vhcurveto
          -83 -76 -27 -5 -12 hhcurveto
          -22 8 66 25 -5 hvcurveto
          17 -4 -10 0 -22 hhcurveto
          -21 -62 -17 -22 hvcurveto
          hintmask 11010000
          -14 27 1 -107 vvcurveto
          -9 -3 -21 -26 -20 vhcurveto
          -48 -37 -187 -157 -23 vvcurveto
          0 -2 -14 41 7 49 1 25 20 vhcurveto
          0 99 151 46 vhcurveto
          hintmask 11001000
          19 0 -82 -38 hvcurveto
          -13 vlineto
          -15 8 -22 83 6 10 4 10 vhcurveto
          0 -24 63 121 96 276 112 25 vvcurveto
          endchar
        </CharString>
        <CharString name="y">
          23 callsubr
          277 -20 24 callgsubr
          -91 callgsubr
          endchar
        </CharString>
        <CharString name="yacute">
          23 callsubr
          437 -20 24 callgsubr
          vstem
          323 2 rmoveto
          -267 -144 -229 -362 -157 hhcurveto
          43 callsubr
          9 6 -3 -5 -6 -6 -3 -6 -3 hvcurveto
          32 callsubr
          190 346 152 75 vhcurveto
          0 36 72 13 vvcurveto
          9 -1 6 -7 -11 -9 -10 0 vhcurveto
          -55 -64 -62 -41 -48 hhcurveto
          -20 -25 7 43 62 88 169 74 74 hvcurveto
          18 18 34 9 17 hhcurveto
          14 16 0 -10 hvcurveto
          -14 -129 -141 -75 vvcurveto
          -18 6 -6 15 47 122 106 135 81 vhcurveto
          8 4 18 28 58 0 callsubr
          -97 -160 -113 -209 vhcurveto
          171 502 -104 callsubr
        </CharString>
        <CharString name="ydieresis">
          23 callsubr
          393 84 24 callgsubr
          108 87 callsubr
          -91 callgsubr
          47 561 -101 callsubr
        </CharString>
        <CharString name="yen">
          92 19 -21 234 55 60 56 284 -20 hstemhm
          282 106 -106 129 hintmask 11111000
          262 291 rmoveto
          -2 -5 rlineto
          -40 -39 1 -38 hhcurveto
          78 callgsubr
          hvcurveto
          21 13 3 84 hhcurveto
          20 hlineto
          -44 -83 -77 -119 -13 vvcurveto
          -19 34 0 18 16 20 4 15 17 vhcurveto
          31 21 50 109 47 83 rrcurveto
          24 34 -1 56 hhcurveto
          39 18 42 36 callgsubr
          -21 -41 -2 -29 hhcurveto
          -35 hlineto
          8 11 7 9 7 8 9 10 12 12 13 12 rrcurveto
          92 hlineto
          38 18 42 36 callgsubr
          -5 hlineto
          -2 -23 -24 0 -23 hhcurveto
          108 95 146 116 60 34 rrcurveto
          11 6 5 7 6 vvcurveto
          13 -29 3 -24 vhcurveto
          0 -59 0 -36 -15 vhcurveto
          -20 -8 -5 -10 -9 -12 -28 -36 -100 -106 -85 -74 rrcurveto
          -8 -9 -10 -4 -6 hhcurveto
          -19 0 29 0 hvcurveto
          hintmask 11110100
          5 75 18 96 33 vvcurveto
          35 -33 9 -35 -64 -14 -9 -10 -4 3 -9 3 -3 vhcurveto
          7 -17 4 -18 -48 -11 1 -17 -20 vvcurveto
          -33 -1 -42 -3 -41 vhcurveto
          -70 hlineto
          78 callgsubr
          3 4 1 0 hvcurveto
          1 28 39 1 37 hhcurveto
          -3 -23 -4 -20 -5 -16 rrcurveto
          endchar
        </CharString>
        <CharString name="z">
          -83 -627 131 819 68 hstem
          62 callgsubr
          vstem
          272 -29 rmoveto
          96 -84 -4 28 33 270 101 100 vvcurveto
          58 -104 8 -22 -103 -80 -44 -31 -7 2 -3 5 vhcurveto
          12 28 17 57 hhcurveto
          66 12 -19 -16 -91 -283 -97 0 hvcurveto
          -43 -16 -5 -48 0 vvcurveto
          -12 1 -3 5 vhcurveto
          9 22 11 49 hhcurveto
          61 31 -39 -60 -141 -220 -288 -76 -39 callsubr
          -5 3 -10 -28 callsubr
          168 322 442 156 vhcurveto
          endchar
        </CharString>
        <CharString name="zcaron">
          -83 -627 131 423 105 291 68 44 105 7 -20 hstemhm
          62 callgsubr
          hintmask 11101111
          385 506 -98 callsubr
          hintmask 11110111
          -92 callgsubr
          -113 -535 rmoveto
          -156 -322 -442 -168 43 callsubr
          10 5 -3 -5 -6 -6 -3 -6 -3 vhcurveto
          32 callsubr
          220 288 141 60 -31 39 -61 vhcurveto
          -49 -22 -11 -9 hhcurveto
          -5 -1 3 12 0 5 48 43 16 hvcurveto
          0 283 97 91 vvcurveto
          16 -12 19 -66 vhcurveto
          -57 -28 -17 -12 hhcurveto
          -5 -2 3 7 31 80 44 103 22 104 -8 -58 hvcurveto
          -100 -270 -101 -33 -28 84 4 -96 vvcurveto
          endchar
        </CharString>
        <CharString name="zero">
          114 -9 59 591 53 hstem
          74 112 400 108 vstem
          230 -9 rmoveto
          270 194 368 177 100 -57 58 -99 -274 -190 -376 -169 -100 56 -58 100 hvcurveto
          356 562 rmoveto
          -193 -199 -310 -133 -61 -7 53 34 185 197 319 136 60 7 -54 -34 vhcurveto
          endchar
        </CharString>
      <CharString index="0">
        8 -8 -12 6 -13 hhcurveto
        -14 -6 -15 -8 -8 hvcurveto
        -28 -36 -39 -32 -7 vvcurveto
        -4 2 -4 25 18 42 18 18 27 -19 callgsubr
        2 3 hhcurveto
        4 3 -2 -4 2 hvcurveto
        return
      </CharString>
      <CharString index="1">
        -107 callgsubr
        endchar
      </CharString>
      <CharString index="2">
        rmoveto
        -106 callsubr
        return
      </CharString>
      <CharString index="3">
        461 -57 rmoveto
        -35 -48 40 22 hvcurveto
        61 98 114 54 vvcurveto
        27 -53 8 -83 -20 -21 -1 -1 -21 vhcurveto
        -38 -50 -72 -97 -56 -123 -6 -13 rlinecurve
        -22 -10 -49 -3 -18 hhcurveto
        -12 -34 1 15 14 92 128 119 144 hvcurveto
        -4 -39 -46 -5 -2 hhcurveto
        -8 -1 9 0 25 45 35 24 9 hvcurveto
        8 4 37 1 45 1 14 16 rcurveline
        178 154 173 173 95 hhcurveto
        0 10 1 13 27 42 -5 -28 -13 -46 -79 -74 -160 vhcurveto
        -66 -145 -104 -245 -18 -78 rrcurveto
        0 0 -8 -16 82 callgsubr
        89 68 178 32 9 -7 5 -10 -42 -108 -106 -116 -99 hvcurveto
        58 -1 51 -1 0 vvcurveto
        return
      </CharString>
      <CharString index="4">
        -103 callsubr
        -5 callgsubr
        return
      </CharString>
      <CharString index="5">
        -99 callgsubr
        -96 callgsubr
        return
      </CharString>
      <CharString index="6">
        6 -3 4 -7 1 vhcurveto
        -17 -18 -8 -8 -13 hvcurveto
        -43 callsubr
        hhcurveto
        -6 -5 4 0 hvcurveto
        return
      </CharString>
      <CharString index="7">
        -93 callsubr
        0 1 -9 8 2 46 5 4 39 vhcurveto
        -94 callsubr
        return
      </CharString>
      <CharString index="8">
        -100 callsubr
        -51 callgsubr
        22 callgsubr
        return
      </CharString>
      <CharString index="9">
        81 callsubr
        157 76 132 29 17 hvcurveto
        67 112 203 348 70 87 rrcurveto
        10 11 5 8 6 vvcurveto
        10 -15 2 -30 -26 -32 0 -19 -23 vhcurveto
        -42 -34 -149 -357 -96 -148 rrcurveto
        -32 -20 -35 -58 -91 hhcurveto
        -70 -2 57 22 84 245 388 38 53 hvcurveto
        0 7 8 9 vvcurveto
        10 -10 11 -44 -92 -10 -12 -18 -16 -1 -23 -29 -57 vhcurveto
        -87 -171 -158 -221 -91 vvcurveto
        -86 75 -44 92 vhcurveto
        return
      </CharString>
      <CharString index="10">
        -99 callsubr
        endchar
      </CharString>
      <CharString index="11">
        -95 callsubr
        51 callsubr
        20 callsubr
        vhcurveto
        -72 callgsubr
        return
      </CharString>
      <CharString index="12">
        -86 callgsubr
        hvcurveto
        12 12 4 28 -68 callgsubr
        vhcurveto
        return
      </CharString>
      <CharString index="13">
        17 -16 11 -21 -37 -33 -29 -26 return
      </CharString>
      <CharString index="14">
        72 -51 rmoveto
        8 5 19 0 hvcurveto
        47 99 121 210 53 67 rrcurveto
        2 2 3 callsubr
        12 -27 5 -12 -63 -22 callgsubr
        -4 -80 -129 -197 -37 vvcurveto
        -37 32 -23 16 vhcurveto
        return
      </CharString>
      <CharString index="15">
        -8 9 12 -5 12 hhcurveto
        14 6 15 8 8 hvcurveto
        28 35 39 33 6 vvcurveto
        4 -2 4 -25 -18 -42 -18 -18 -27 vhcurveto
        0 -6 -2 -5 -3 -3 1 3 -2 vhcurveto
        return
      </CharString>
      <CharString index="16">
        vstem
        323 2 rmoveto
        113 209 97 160 -57 callgsubr
        -58 -18 -28 -8 -4 vhcurveto
        -135 -81 -122 -106 -47 hhcurveto
        -15 -6 6 18 hvcurveto
        75 129 141 14 vvcurveto
        10 -16 0 -14 -17 -34 -9 -18 -18 vhcurveto
        -74 -74 -88 -169 -62 vvcurveto
        -43 25 -7 20 48 62 41 55 64 vhcurveto
        0 9 10 11 7 1 -6 -9 -13 -36 -72 0 vhcurveto
        -152 -75 -190 -346 -76 hhcurveto
        -39 callsubr
        -6 3 -9 -28 callsubr
        157 229 362 267 144 vhcurveto
        return
      </CharString>
      <CharString index="17">
        7 callsubr
        -7 -5 -4 -18 -15 vvcurveto
        -32 10 -32 30 vhcurveto
        0 9 -1 4 13 vhcurveto
        32 105 157 242 -57 callgsubr
        -32 -29 -9 -27 -19 vhcurveto
        return
      </CharString>
      <CharString index="18">
        -100 callgsubr
        -11 callgsubr
        -56 callgsubr
        return
      </CharString>
      <CharString index="19">
        -83 -21 -130 -281 -76 vvcurveto
        -43 32 -10 20 59 45 26 84 87 vhcurveto
        -90 callgsubr
        return
      </CharString>
      <CharString index="20">
        747 539 -80 callsubr
        -28 callgsubr
        -47 callsubr
        vhcurveto
        return
      </CharString>
      <CharString index="21">
        rmoveto
        188 91 208 0 hvcurveto
        40 18 29 43 31 vvcurveto
        14 -4 3 -4 vhcurveto
        -8 -5 -10 -22 hhcurveto
        -21 -4 7 5 return
      </CharString>
      <CharString index="22">
        -69 callsubr
        -88 callgsubr
        return
      </CharString>
      <CharString index="23">
        -11 -72 callsubr
        38 -27 callsubr
        -19 -20 -28 -5 -33 -19 vhcurveto
        endchar
      </CharString>
      <CharString index="24">
        -50 callgsubr
        68 callgsubr
        -202 -116 -217 -114 -68 30 -57 82 vhcurveto
        176 362 rmoveto
        68 callsubr
        return
      </CharString>
      <CharString index="25">
        -22 -1 30 -89 hhcurveto
        -108 -112 -123 -90 -10 6 -15 15 35 69 49 112 65 hvcurveto
        0 9 25 58 vhcurveto
        0 37 -3 -13 vvcurveto
        -2 -1 -1 -1 -2 vhcurveto
        0 -113 -166 -13 -90 vhcurveto
        endchar
      </CharString>
      <CharString index="26">
        rmoveto
        -11 -44 -15 -25 -23 91 -55 28 -5 hvcurveto
        return
      </CharString>
      <CharString index="27">
        4 3 -3 126 hhcurveto
        61 67 0 2 37 hvcurveto
        19 1 19 1 13 16 rrcurveto
        return
      </CharString>
      <CharString index="28">
        403 rmoveto
        6 -3 4 -33 -18 -34 -2 -10 -19 vhcurveto
        -66 -34 -223 -182 -55 vvcurveto
        -22 71 -4 68 vhcurveto
        14 hlineto
        -46 -75 -15 -14 -7 vvcurveto
        -6 6 -7 36 30 10 3 14 6 vhcurveto
        9 26 5 12 12 25 17 31 rlinecurve
        25 hlineto
        24 13 29 7 8 -2 0 -4 hvcurveto
        -1 -3 -12 -1 -18 hhcurveto
        53 96 72 122 17 22 rrcurveto
        0 8 9 6 vvcurveto
        return
      </CharString>
      <CharString index="29">
        8 callsubr
        -83 callsubr
        return
      </CharString>
      <CharString index="30">
        11 callgsubr
        -12 18 -1 11 38 32 8 21 24 vhcurveto
        7 7 6 2 7 return
      </CharString>
      <CharString index="31">
        -43 callgsubr
        -11 10 -43 -93 -14 -17 -9 vhcurveto
        return
      </CharString>
      <CharString index="32">
        -64 callgsubr
        2 4 -1 -7 hvcurveto
        -6 -2 -9 -6 vvcurveto
        return
      </CharString>
      <CharString index="33">
        5 8 5 10 10 vvcurveto
        13 -8 11 -27 -56 -25 -40 -74 -37 8 -20 5 -11 vhcurveto
        -5 3 3 -2 3 hhcurveto
        3 3 3 3 2 hvcurveto
        0 66 112 10 19 vhcurveto
        return
      </CharString>
      <CharString index="34">
        hstem
        1 callgsubr
        vstem
        -87 callgsubr
        return
      </CharString>
      <CharString index="35">
        47 35 78 123 29 vvcurveto
        11 -19 2 -7 -62 -15 -17 0 vhcurveto
        return
      </CharString>
      <CharString index="36">
        163 50 rmoveto
        -35 5 5 -15 vvcurveto
        -20 -50 -3 -47 -82 -16 13 10 6 6 6 0 vhcurveto
        44 26 156 249 143 284 rrcurveto
        21 42 1 24 17 vvcurveto
        16 vlineto
        9 14 17 93 43 11 -10 -10 -8 -8 -8 0 vhcurveto
        -42 -54 -112 -190 -68 -124 rrcurveto
        0 -112 -203 -44 vvcurveto
        return
      </CharString>
      <CharString index="37">
        -32 callgsubr
        2 2 1 2 4 vhcurveto
        -20 callgsubr
        return
      </CharString>
      <CharString index="38">
        -81 -84 -135 -58 -25 -3 22 14 81 83 136 59 25 3 -22 -15 vhcurveto
        return
      </CharString>
      <CharString index="39">
        vvcurveto
        55 -74 12 -17 -26 callgsubr
        -119 97 -7 20 return
      </CharString>
      <CharString index="40">
        -97 callsubr
        -80 callgsubr
        return
      </CharString>
      <CharString index="41">
        rmoveto
        108 39 50 16 5 -3 1 -2 hvcurveto
        -78 callsubr
        return
      </CharString>
      <CharString index="42">
        17 -21 -27 5 -21 hhcurveto
        -14 -9 -4 -8 -9 hvcurveto
        -47 -40 -80 -135 -1 -10 rrcurveto
        -7 3 -4 11 9 6 0 18 23 vhcurveto
        57 70 75 52 87 hhcurveto
        14 36 -1 -26 hvcurveto
        -1 vlineto
        -3 -55 -608 -389 -127 vvcurveto
        -35 55 -7 173 27 96 9 0 vhcurveto
        return
      </CharString>
      <CharString index="43">
        -245 -142 -258 -107 -13 0 -48 41 hvcurveto
        96 67 105 26 hhcurveto
        return
      </CharString>
      <CharString index="44">
        1 -26 -46 1 -50 hhcurveto
        -99 -114 -4 -13 hvcurveto
        return
      </CharString>
      <CharString index="45">
        -30 -39 -121 -138 -92 -81 rrcurveto
        -8 -9 -11 -5 -7 hhcurveto
        -20 0 32 0 hvcurveto
        5 79 30 126 50 vvcurveto
        9 -4 28 -68 -70 -15 -9 -11 -6 3 -7 3 -5 vhcurveto
        5 -12 1 -18 -26 -27 1 -27 -52 vvcurveto
        -73 -4 -109 -18 -59 vhcurveto
        return
      </CharString>
      <CharString index="46">
        -6 -1 -24 -16 vhcurveto
        hintmask 10100101
        -82 callgsubr
      </CharString>
      <CharString index="47">
        rmoveto
        -15 -17 -19 -25 -12 -10 7 10 15 20 18 22 13 9 -6 -10 vhcurveto
        -105 -28 rmoveto
        -24 23 -14 28 52 44 41 35 return
      </CharString>
      <CharString index="48">
        426 331 rmoveto
        27 19 29 9 32 0 callsubr
        -157 -242 -32 -105 vhcurveto
        -4 -13 -9 1 0 vvcurveto
        -30 -10 32 32 hvcurveto
        15 4 18 5 vvcurveto
        7 -7 0 0 -9 -6 -7 0 vhcurveto
        return
      </CharString>
      <CharString index="49">
        0 -7 -8 -7 vvcurveto
        -11 18 0 10 22 32 7 27 16 vhcurveto
        return
      </CharString>
      <CharString index="50">
        0 vvcurveto
        2 3 20 callgsubr
        -20 1 -10 return
      </CharString>
      <CharString index="51">
        116 99 108 106 42 hhcurveto
        10 7 -5 -9 -32 -68 -178 -89 hvcurveto
        return
      </CharString>
      <CharString index="52">
        46 17 8 44 4 vhcurveto
        77 7 147 83 124 vvcurveto
        return
      </CharString>
      <CharString index="53">
        34 28 31 7 38 25 28 -3 32 hhcurveto
        return
      </CharString>
      <CharString index="54">
        72 -51 rmoveto
        -16 -32 23 37 37 129 197 4 80 hvcurveto
        1 16 17 10 0 vvcurveto
        0 32 19 63 12 27 -5 -12 -2 -1 -3 -2 -2 vhcurveto
        -53 -67 -121 -210 -47 -99 rrcurveto
        0 -5 -19 -8 vhcurveto
        return
      </CharString>
      <CharString index="55">
        -84 -87 -45 -26 -59 hhcurveto
        -20 -32 10 43 76 130 281 83 21 hvcurveto
        3 10 14 1 10 hhcurveto
        11 12 -3 -9 hvcurveto
        -14 -143 -176 -87 vvcurveto
        -18 9 -10 14 61 75 86 147 110 vhcurveto
        return
      </CharString>
      <CharString index="56">
        16 10 16 30 10 vvcurveto
        6 -5 1 -5 vhcurveto
        return
      </CharString>
      <CharString index="57">
        -33 callsubr
        -55 callgsubr
        return
      </CharString>
      <CharString index="58">
        hhcurveto
        -15 -6 15 10 90 112 123 108 hvcurveto
        return
      </CharString>
      <CharString index="59">
        35 callgsubr
        -12 -6 -13 -9 -1 -11 rrcurveto
        -1 vlineto
        -10 18 -3 -15 vvcurveto
        -19 -20 -7 -13 -15 -9 6 0 vhcurveto
        2 -3 -2 1 -2 hhcurveto
        -4 -2 -5 -3 -9 16 -19 26 return
      </CharString>
      <CharString index="60">
        rmoveto
        132 101 125 91 52 -33 40 -78 -136 -98 -122 -91 -53 34 -42 78 hvcurveto
        112 281 rmoveto
        53 23 -32 -41 -74 -73 -103 -101 -56 -24 31 40 74 79 105 99 hvcurveto
        return
      </CharString>
      <CharString index="61">
        vhcurveto
        -138 -87 -137 -9 -35 hhcurveto
        return
      </CharString>
      <CharString index="62">
        rmoveto
        -8 -1 -5 -4 -4 hhcurveto
        -42 -7 37 20 hvcurveto
        6 2 9 6 vvcurveto
        7 -4 1 -2 vhcurveto
        return
      </CharString>
      <CharString index="63">
        rmoveto
        114 111 144 102 44 -28 26 -48 return
      </CharString>
      <CharString index="64">
        rrcurveto
        0 8 8 8 vvcurveto
        10 return
      </CharString>
      <CharString index="65">
        -60 callgsubr
        24 callsubr
        endchar
      </CharString>
      <CharString index="66">
        -26 -67 -105 -96 hhcurveto
        -41 0 48 13 107 142 258 245 8 81 -6 -60 hvcurveto
        return
      </CharString>
      <CharString index="67">
        rmoveto
        108 39 50 16 76 callgsubr
        5 -3 1 -2 vhcurveto
        -6 callgsubr
      </CharString>
      <CharString index="68">
        rmoveto
        184 198 195 190 190 196 rrcurveto
        4 5 2 3 2 vvcurveto
        return
      </CharString>
      <CharString index="69">
        -290 -198 -375 -182 return
      </CharString>
      <CharString index="70">
        -5 -1 -7 -4 -8 vhcurveto
        -63 callsubr
        return
      </CharString>
      <CharString index="71">
        22 callgsubr
        -95 callsubr
        return
      </CharString>
      <CharString index="72">
        13 callsubr
        -52 callsubr
        return
      </CharString>
      <CharString index="73">
        -27 -42 rrcurveto
        -58 callgsubr
        return
      </CharString>
      <CharString index="74">
        -76 callgsubr
        -13 vlineto
        -16 return
      </CharString>
      <CharString index="75">
        -16 -16 -12 -30 -21 vvcurveto
        -3 1 -6 5 return
      </CharString>
      <CharString index="76">
        0 -24 -51 -28 -6 -2 9 16 vhcurveto
        90 82 309 32 vvcurveto
        28 -69 1 -8 -112 -8 -30 -9 vhcurveto
        -16 vlineto
        -17 -2 -24 -21 -42 vhcurveto
        return
      </CharString>
      <CharString index="77">
        42 98 88 70 9 vvcurveto
        21 -46 1 0 -56 -8 -22 0 vhcurveto
        -14 -8 -10 -3 -9 -6 -6 1 -5 hhcurveto
        -170 -116 -207 -93 return
      </CharString>
      <CharString index="78">
        150 293 196 255 19 vvcurveto
        2 vlineto
        11 -26 1 -10 -8 -38 -1 -14 -24 vhcurveto
        -43 -31 -36 -141 -153 -251 rrcurveto
        return
      </CharString>
      <CharString index="79">
        -118 9 rmoveto
        -9 callgsubr
        return
      </CharString>
      <CharString index="80">
        -1 85 hhcurveto
        -3 callsubr
        return
      </CharString>
      <CharString index="81">
        -177 -141 -178 -126 return
      </CharString>
      <CharString index="82">
        61 44 166 182 86 hhcurveto
        0 16 0 -18 vvcurveto
        -56 -126 -196 -20 -30 vhcurveto
        0 16 callgsubr
        -6 5 -7 23 vhcurveto
        return
      </CharString>
      <CharString index="83">
        rmoveto
        -38 -72 -29 -52 -25 -42 rrcurveto
        -43 2 -41 5 15 vvcurveto
        35 131 125 40 6 1 -4 -4 -4 -2 -4 0 vhcurveto
        endchar
      </CharString>
      <CharString index="84">
        -17 22 42 -6 26 hhcurveto
        11 hlineto
        39 4 144 242 2 26 rrcurveto
        6 -5 4 -11 vhcurveto
        -2 hlineto
        -7 -8 0 -17 -21 hvcurveto
        return
      </CharString>
      <CharString index="85">
        -32 -19 0 0 -17 -10 -1 -16 vhcurveto
        return
      </CharString>
      <CharString index="86">
        52 37 37 33 22 -21 13 -27 hvcurveto
        return
      </CharString>
      <CharString index="87">
        0 22 9 15 7 5 -2 -6 vhcurveto
        return
      </CharString>
      <CharString index="88">
        vhcurveto
        2 3 4 return
      </CharString>
      <CharString index="89">
        -15 27 0 13 11 17 1 12 17 vhcurveto
        44 29 21 123 154 251 rrcurveto
        0 48 83 23 7 4 -8 -19 vhcurveto
        return
      </CharString>
      <CharString index="90">
        -23 -9 -5 -27 -17 vvcurveto
        -11 2 -5 6 5 5 3 0 vhcurveto
        return
      </CharString>
      <CharString index="91">
        -10 -8 8 -2 return
      </CharString>
      <CharString index="92">
        -4 5 -2 6 6 8 0 11 15 vhcurveto
        0 52 61 72 4 25 -1 -23 -72 -300 -113 -44 -153 vhcurveto
        return
      </CharString>
      <CharString index="93">
        155 -19 61 616 55 return
      </CharString>
      <CharString index="94">
        -5 3 -8 27 32 32 6 23 28 vhcurveto
        0 8 6 13 3 4 0 -1 3 vhcurveto
        -4 19 13 -9 75 hhcurveto
        return
      </CharString>
      <CharString index="95">
        25 64 117 15 2 hvcurveto
        4 -3 2 -6 -6 -10 0 -10 -10 vhcurveto
        0 -66 -87 -77 -12 -21 2 16 vhcurveto
        return
      </CharString>
      <CharString index="96">
        38 callgsubr
        0 -51 1 -58 1 vhcurveto
        return
      </CharString>
      <CharString index="97">
        290 198 376 182 return
      </CharString>
      <CharString index="98">
        -195 -210 -311 -137 return
      </CharString>
      <CharString index="99">
        40 30 31 25 return
      </CharString>
      <CharString index="100">
        -12 callsubr
        11 callsubr
        return
      </CharString>
      <CharString index="101">
        -78 callsubr
        endchar
      </CharString>
      <CharString index="102">
        -17 16 -12 21 return
      </CharString>
      <CharString index="103">
        -27 20 -24 25 4 5 2 7 3 vhcurveto
        30 74 74 87 13 11 rrcurveto
        1 2 0 1 2 vvcurveto
        return
      </CharString>
      <CharString index="104">
        -36 -21 326 65 224 145 return
      </CharString>
      <CharString index="105">
        21 callgsubr
        -39 -42 -85 -77 return
      </CharString>
      <CharString index="106">
        -7 33 -11 -21 285 30 79 33 253 30 hstemhm
        169 66 91 66 13 64 93 64 return
      </CharString>
      <CharString index="107">
        -19 callgsubr
        1 3 hhcurveto
        5 4 -2 0 hvcurveto
        return
      </CharString>
      <CharString index="108">
        79 123 427 118 return
      </CharString>
      <CharString index="109">
        76 callsubr
        10 8 -8 return
      </CharString>
      <CharString index="110">
        7 9 vhcurveto
        0 7 0 return
      </CharString>
      <CharString index="111">
        4 3 vvcurveto
        return
      </CharString>
      <CharString index="112">
        -17 8 -13 22 -5 vhcurveto
        2 4 -3 -6 -9 -4 -16 -40 -23 hvcurveto
        0 -2 -3 -2 vvcurveto
        return
      </CharString>
      <CharString index="113">
        11 17 -20 callsubr
        hintmask 10010000
        10 -18 1 -10 -22 -32 -7 -27 -16 vhcurveto
        return
      </CharString>
      <CharString index="114">
        -76 60 10 -19 vvcurveto
        -20 -26 -10 -22 vhcurveto
        176 362 rmoveto
        30 -20 1 -8 vhcurveto
        return
      </CharString>
      <CharString index="115">
        16 1 24 6 60 -81 6 -8 return
      </CharString>
      <CharString index="116">
        106 1 -20 hstemhm
        return
      </CharString>
      <CharString index="117">
        rmoveto
        25 13 39 9 6 -4 1 -3 hvcurveto
        -14 -25 -2 -27 -53 -65 2 -36 hhcurveto
        return
      </CharString>
      <CharString index="118">
        vvcurveto
        -3 vlineto
        return
      </CharString>
      <CharString index="119">
        -45 rmoveto
        -37 9 -78 48 8 1 10 5 return
      </CharString>
      <CharString index="120">
        rmoveto
        47 26 53 14 callsubr
        return
      </CharString>
      <CharString index="121">
        5 5 2 4 callgsubr
        return
      </CharString>
      <CharString index="122">
        -38 -39 -30 -22 20 -14 return
      </CharString>
      <CharString index="123">
        60 callsubr
        vvcurveto
        return
      </CharString>
      <CharString index="124">
        68 callsubr
        -44 callsubr
        vhcurveto
        return
      </CharString>
      <CharString index="125">
        46 hhcurveto
        50 61 -3 -78 -45 -49 -178 -225 -55 -16 3 19 15 return
      </CharString>
      <CharString index="126">
        86 callgsubr
        2 2 vvcurveto
        return
      </CharString>
      <CharString index="127">
        3 callsubr
        11 return
      </CharString>
      <CharString index="128">
        158 190 rmoveto
        return
      </CharString>
      <CharString index="129">
        -4 -29 -3 -41 hhcurveto
        return
      </CharString>
      <CharString index="130">
        hstemhm
        34 100 216 93 -93 149 return
      </CharString>
      <CharString index="131">
        hstem
        -249 124 148 132 return
      </CharString>
      <CharString index="132">
        -139 -273 return
      </CharString>
      <CharString index="133">
        66 16 -20 hstemhm
        return
      </CharString>
      <CharString index="134">
        0 -5 4 -7 -23 -21 -36 -22 vhcurveto
        -34 214 -28 -36 vvcurveto
        return
      </CharString>
      <CharString index="135">
        355 435 rmoveto
        -31 -65 -304 -77 vvcurveto
        -30 62 0 0 return
      </CharString>
      <CharString index="136">
        hhcurveto
        42 24 50 9 7 -7 2 -5 58 callsubr
        -2 return
      </CharString>
      <CharString index="137">
        -85 callsubr
        endchar
      </CharString>
      <CharString index="138">
        -40 -5 9 -9 hhcurveto
        -13 -37 -40 -34 -26 26 -10 0 hvcurveto
        return
      </CharString>
      <CharString index="139">
        rmoveto
        22 -1 -19 13 -26 hhcurveto
        -33 -55 -25 -43 hvcurveto
        -1 vlineto
        return
      </CharString>
      <CharString index="140">
        35 -207 30 28 vvcurveto
        30 173 49 137 34 vhcurveto
        return
      </CharString>
      <CharString index="141">
        vvcurveto
        -3 1 -3 2 -4 vhcurveto
        0 return
      </CharString>
      <CharString index="142">
        -2 vvcurveto
        -1 -1 -1 -2 -1 vhcurveto
        return
      </CharString>
      <CharString index="143">
        9 6 -7 1 -5 hvcurveto
        return
      </CharString>
      <CharString index="144">
        30 31 3 65 hhcurveto
        return
      </CharString>
      <CharString index="145">
        -18 391 rmoveto
        return
      </CharString>
      <CharString index="146">
        rmoveto
        -120 -175 -396 -212 -56 -29 15 25 return
      </CharString>
      <CharString index="147">
        rmoveto
        -33 -153 -183 -61 -14 -7 10 20 70 104 return
      </CharString>
      <CharString index="148">
        -7 -14 -33 -64 -145 -149 -104 hvcurveto
        0 -6 -5 return
      </CharString>
      <CharString index="149">
        13 11 21 15 32 hhcurveto
        78 29 -29 -63 hvcurveto
        endchar
      </CharString>
      <CharString index="150">
        -21 22 -21 return
      </CharString>
      <CharString index="151">
        -46 -17 -182 -306 -30 vvcurveto
        -4 3 -9 23 return
      </CharString>
      <CharString index="152">
        -145 -293 -191 -264 -33 11 callgsubr
        return
      </CharString>
      <CharString index="153">
        158 198 304 112 45 2 -43 -7 return
      </CharString>
      <CharString index="154">
        104 -23 -21 56 -21 24 -21 405 239 69 return
      </CharString>
      <CharString index="155">
        26 vvcurveto
        15 -25 1 -5 -81 -21 -26 -18 -10 vhcurveto
        return
      </CharString>
      <CharString index="156">
        3 callgsubr
        -10 0 -2 -9 -11 vvcurveto
        return
      </CharString>
      <CharString index="157">
        22 7 6 4 8 3 vhcurveto
        return
      </CharString>
      <CharString index="158">
        hstemhm
        16 127 return
      </CharString>
      <CharString index="159">
        5 -12 0 0 -38 -57 -120 -15 -1 vhcurveto
        return
      </CharString>
      <CharString index="160">
        81 -15 62 -39 -21 477 237 -61 61 return
      </CharString>
      <CharString index="161">
        -27 -7 -26 -33 -27 vvcurveto
        -7 4 -3 9 vhcurveto
        return
      </CharString>
      <CharString index="162">
        rmoveto
        31 -77 8 -79 -60 -45 -2 -4 -44 vhcurveto
        return
      </CharString>
      <CharString index="163">
        20 46 4 48 hhcurveto
        39 38 -1 -2 29 hvcurveto
        return
      </CharString>
      <CharString index="164">
        11 20 4 18 14 vvcurveto
        5 8 4 0 vhcurveto
        return
      </CharString>
      <CharString index="165">
        -55 -21 829 -20 return
      </CharString>
      <CharString index="166">
        239 54 -54 69 return
      </CharString>
      <CharString index="167">
        -21 35 58 -34 -21 return
      </CharString>
      <CharString index="168">
        68 -52 43 callgsubr
        74 -20 hstemhm
        hintmask 00110000
        return
      </CharString>
      <CharString index="169">
        -260 124 314 94 59 127 return
      </CharString>
      <CharString index="170">
        49 17 27 16 hvcurveto
        26 -21 -3 19 vvcurveto
        return
      </CharString>
      <CharString index="171">
        -20 23 callgsubr
        return
      </CharString>
      <CharString index="172">
        -92 -8 -21 739 -20 return
      </CharString>
      <CharString index="173">
        -1 -3 56 hvcurveto
        return
      </CharString>
      <CharString index="174">
        -200 3 -21 return
      </CharString>
      <CharString index="175">
        61 -48 8 -19 return
      </CharString>
      <CharString index="176">
        137 hstemhm
        -203 165 310 return
      </CharString>
      <CharString index="177">
        -121 248 52 -35 43 callgsubr
        return
      </CharString>
      <CharString index="178">
        -101 -75 38 255 160 -51 92 return
      </CharString>
      <CharString index="179">
        -16 -8 -3 -9 -6 -12 -65 -127 return
      </CharString>
      <CharString index="180">
        23 -16 -1 0 -7 -4 -8 0 vhcurveto
        return
      </CharString>
      <CharString index="181">
        461 -57 36 callsubr
        return
      </CharString>
      <CharString index="182">
        -21 -2 -50 -90 -1 -6 rrcurveto
        -1 vlineto
        return
      </CharString>
      <CharString index="183">
        hvcurveto
        hintmask 10000000
        return
      </CharString>
      <CharString index="184">
        139 72 -50 -21 hstemhm
        hintmask 01000000
        return
      </CharString>
      <CharString index="185">
        -38 -18 -42 -8 -6 5 -2 5 return
      </CharString>
      <CharString index="186">
        -7 -4 -10 -1 -13 hhcurveto
        -16 hlineto
        return
      </CharString>
      <CharString index="187">
        -20 hstemhm
        hintmask 10100000
        return
      </CharString>
      <CharString index="188">
        -11 44 14 -28 vvcurveto
        return
      </CharString>
      <CharString index="189">
        vhcurveto
        38 callgsubr
        return
      </CharString>
      <CharString index="190">
        747 539 rmoveto
        return
      </CharString>
      <CharString index="191">
        -27 -47 -2 -54 return
      </CharString>
      <CharString index="192">
        -4 -3 -1 0 return
      </CharString>
      <CharString index="193">
        vhcurveto
        1 2 1 return
      </CharString>
      <CharString index="194">
        3 1 3 return
      </CharString>
</ttFont>
